<svg version="1.1" id="Layer_1" width="800" height="800" xmlns="http://www.w3.org/2000/svg" xmlns:xlink="http://www.w3.org/1999/xlink" x="0px" y="0px" fill="#CFAB65" viewBox="0 0 200 200" enable-background="new 0 0 200 200" xml:space="preserve">
<path d="M84.7,194.1c0.2-0.9,0.7-1.1,1.2-0.2c1.2,2,2.5,4.1,3.7,6.1c1.7,0,3.3,0,5,0c0.3-1.1,1.1-1.3,2.2-1.4
    c3.9-0.5,4.7-0.7,5.5-5.3c0.2-0.9,0.6-1.9,1.1-2.7c0.2-0.3,1-0.2,1.5-0.1c0.7,0.2,1.4,0.7,2.1,0.9c0.3,0.1,0.6,0,1-0.1
    c-3.6-1.8-4.2-5.1-4.6-8.4c-0.1-1-0.6-1.9-0.7-2.9c-0.2-1.6-0.4-3.3-0.5-4.9c0-0.6,0.3-1.3,0.2-1.9c-0.2-0.8-0.7-1.6-1-2.3
    c-0.6,0.4-1.2,0.8-1.8,1.2c-0.2,0.2-0.4,0.4-0.6,0.6c-0.3,0.3-0.6,0.5-0.9,0.8c-0.3-0.3-0.7-0.7-0.8-1.1c-0.3-2.3-0.6-4.6-0.8-6.9
    c-0.1-1.8-0.5-3.5,0.6-5.2c0.5-0.7,1-2.3-0.8-2.8c-0.2-0.1-0.3-0.6-0.3-0.9c-0.1-0.8-0.2-1.6-0.3-2.4c-0.2-3.3-1.2-6.3-3.2-8.9
    c-1.6-2.1-0.4-4.8,2.3-5.1c1.4-0.2,1.5-0.9,0.8-1.7c-0.6-0.8-1.4-1.6-2.3-2.1c-4.8-2.7-6.6-6.8-5-11.9c0.2-0.6,0.5-1.3,0.9-1.6
    c3.6-3,6.2-6.6,8.6-10.5c0.9-1.4,2.8-2.5,4.4-3.3c2.5-1.1,2.6-1.2,1.3-3.5c-1.6-2.7-1.7-5.8-2.2-8.8c0.3-0.1,0.5-0.1,0.8-0.2
    c0.4,1.7,0.9,3.3,1.2,5c0.5,3.1,2,5.7,4.1,8c0.1,0.1,0.4,0.1,0.5,0c0.4-0.2,0.7-0.4,1.2-0.7c-0.1-0.1-0.3-0.6-0.7-0.8
    c-3.4-2-3.1-5.5-3.3-8.6c-0.1-1,1.4-2.2,2.1-3.3c0.2,0.2,0.8,0.6,0.7,0.7c-0.3,1.2-0.6,2.3-1.2,3.4c-0.4,0.9,0.2,2.6,1.2,2.9
    c2.7,0.6,3.4,1.6,3.2,4c0,0.4,0.1,0.9,0.4,1.2c1.2,1.5,2.4,3.2,3.9,4.5c0.9,0.8,2.5,0.7,3.7,1.2c1.1,0.5,2.3,1.1,2.9,1.9
    c1,1.3,2,1.2,3.2,0.4c0.1-0.1,0.2-0.3,0.4-0.3c0.7-0.3,1.4-0.5,2.1-0.7c-0.2,1.1,0,2.4-0.6,3.1c-0.7,0.9-2,1.5-3.1,2.1
    c-0.2,0.1-0.9-0.5-1.2-0.9c-0.4-0.7-0.9-1.2-1.6-0.5c-0.2,0.2-0.3,0.7-0.2,1c0.2,0.5,0.7,0.9,0.9,1.4c0.4,0.7,0.4,1.3-0.7,1.4
    c-0.5,0.1-1,0.6-1.5,0.9c0.4,0.5,0.8,1.1,1.3,1.5c1.3,0.9,2.6,1.7,4,2.5c-0.1,0.2-0.1,0.4-0.2,0.6c-1.4-0.4-3.1-0.6-4.3-1.4
    c-1.6-1.1-3-2.5-4.2-4c-1.7-1.9-1.7-4-0.3-6.2c0.1-0.2,0.2-0.7,0.1-0.9c-0.2-0.2-0.8-0.3-0.9-0.2c-1.1,1.3-0.6,0.1-0.8-0.4
    c-0.1-0.3-0.6-0.6-0.9-0.7c-2.3-0.7-4.6-0.6-6.5,0.8c-2.7,2-5.3,4.3-7.9,6.5c-0.3,0.3-0.2,1.1-0.3,1.9c5.5-5,8.9-5.7,11.8-2.2
    c-3.3-1.2-6.2-0.9-9,0.7c3.3-1.4,6.1,0.1,9.1,1.3c-2,0-3.1,1.5-4.3,2.5c-1.3,1.2-2.5,2.7-3.2,4.3c-2.2,5.3-4.3,10.6-6.1,16
    c-0.6,1.7-0.1,3.8-0.1,5.7c0.2,0,0.3,0,0.3-0.1c0.5-0.6,1-1.1,1.5-1.7c0.3,0.7,0.9,1.4,1,2.2c0.2,1.6,0,3.2,0,4.7c0.2,0,0.4,0,0.6,0
    c0.1-0.8,0.2-1.6,0.3-2.5c0.1,0,0.2,0,0.3-0.1c0.2,0.9,0.4,1.9,0.6,2.8c0.2,0,0.3,0,0.5,0c0.2-1,0.4-2.1,0.6-3.1
    c0.1-0.5,0.4-1.3,0.7-1.4c2-0.4,1.4-1.7,1-2.8c-0.3-0.9-0.9-1.8-1.4-2.6c-0.4-0.9-0.2-1.3,0.9-1.3c0.8,0,1.5,0,2.3-0.1
    c0.1,0,0.1,0,0.2,0c0.2,1.1,1.6,0.7,1.8,1.2c0.5,0.8,0.5,1.9,0.5,2.8c0,1-0.2,2.1-0.3,3.1c2.5-1.5,2.7-4.1,2.7-6.7
    c0-1,0.1-1.5,1-1.8c0.8-0.3,1.6-0.8,2.4-1.2c1.7-0.7,2-1.4,1.3-3.2c-0.1-0.2,0.3-0.5,0.5-0.7c0.7,0.6,1.8,1.1,2,1.9
    c0.3,1.4,0.1,2.9,0.1,4.4c0,0.3,0.1,0.6,0.2,0.9c0.2-0.2,0.6-0.5,0.6-0.7c0.1-1.1,0.1-2.1,0.2-3.2c0-0.2,0.4-0.4,0.6-0.6
    c0.2-0.2,0.5-0.3,0.6-0.4c0.2-0.7,0.2-1.4,0.4-2.1c0-0.1,0.4-0.2,0.6-0.2c0.5,0.1,1,0.1,1.4,0.3c2.1,1.2,4.3,2.4,6.4,3.9
    c0.9,0.6,1.4,1.8,2,2.7c0.3,0.5,0.5,1,1.2,1.3c-0.6-1.8-1.3-3.6-1.8-5.4c-0.1-0.5,0-1.1,0.1-1.6c0.4,0.4,0.8,0.7,1.1,1.1
    c0.4,0.8,0.8,1.6,1.5,2.2c0-1.1,0.1-2.2,0-3.3c-0.1-0.5-0.3-1.2-0.7-1.5c-1.6-1.2-3.2-2.4-5-3.3c-2.3-1.2-4.8-2.1-6-4.7
    c-0.3-0.7-1.1-1.3-1.8-1.9c-0.3-0.2-0.8-0.2-1.2-0.1c-0.9,0.3-0.8,0.3-1.1-0.4c0-0.1-0.2-0.3-0.4-0.4c-0.3-0.2-0.6-0.3-0.9-0.4
    c0.4-0.2,0.8-0.6,1.2-0.7c0.6-0.1,1.2-0.1,1.7,0.2c3.1,1.4,6.2,2.7,9.2,4.2c1.4,0.7,2.7,1.7,4.2,2.3c1.1,0.5,2.4,0.7,2.6-1.3
    c0-0.6,1.4-1.3,2.2-1.4c1.1-0.1,1.5,0.8,1.4,1.9c-0.1,0.8,0.2,1.7,0.5,2.5c1,2.9,2.1,5.8,3,8.7c0.6,2.2,1.5,4.1,3.2,5.5
    c1.6,1.3,3.3,2.5,4.9,3.9c0.3,0.3,0.4,0.9,0.5,1.4c0.1,0.6,0,1.2,0,1.8c-1.5-1.5-3-3.1-4.5-4.7c-0.2,0.1-0.3,0.3-0.5,0.4
    c1.1,1.4,2.2,2.7,3.3,4.1c1.5,1.9,1.2,3.7-0.6,4.6c-1,0.5-3-0.6-3.1-1.7c0-0.3-0.2-0.6-0.3-0.9c-0.3,0.2-0.6,0.4-0.8,0.6
    c-0.4,0.3-0.7,0.7-1,1c-0.2-0.5-0.4-1-0.5-1.4c-0.1-0.9-0.3-1.4-1.4-1.3c-0.5,0-1-0.3-1.8-0.7c0.5,0.8,0.8,1.4,1.1,2
    c0.6,1,1.6,1.9,0.2,3c-0.1,0.1-0.1,0.6,0,0.7c1.9,1.9,1.8,4.4,1.8,6.7c0,4.2,0.2,8.4,0,12.6c-0.1,1.7-0.6,3.6-1.5,5.1
    c-1.5,2.6-3.4,5.1-3.8,8.2c-0.2,1.2-0.7,1.4-1.8,0.7c-2.2-1.4-2.9-2.9-2.2-5.4c0.7-2.3,1.6-4.5,2.2-6.8c0.3-1.2,0.3-2.4,0-3.7
    c-1,3.7-2,7.4-2.9,11.1c-0.6-0.4-1.1-0.7-1.6-1c-0.1,0.5-0.2,1.1-0.2,1.6c0.5,3.2,1.8,5.9,4.7,7.7c12.6,0,25.2,0,37.9,0
    c0.2-2.2,1.3-3.3,3.5-3.9c1.4-0.4,3-0.7,3.8-2.3c0.5-0.9,1.6-1.6,2.4-2.3c0,0,0.2,0,0.5,0.1c-0.6,0.9-1.1,1.7-1.7,2.6
    c0.1,0.1,0.2,0.2,0.3,0.3c0.4-0.5,0.8-1.1,1.2-1.5c0.3-0.3,1.1-0.8,1.2-0.7c0.4,0.4,0.8,0.9,1,1.4c0.2,0.6,0.2,1.4,0.3,2.3
    c0.7-2.2,1.4-4.2,2.1-6.2c-1.9,1.8-1.9,1.7-2.9-0.9c-0.5-1.2-1.4-2.3-2.1-3.4c-0.4-0.6-0.7-1.1-0.9-1.8c2,1,2.7,3.3,4.9,4.1
    c-0.2-1.2-2.3-1.8-1.4-3.5c0,0-0.3-0.3-0.4-0.2c-1.1,0.7-1.3-0.3-1.7-0.8c-0.7-1-1.2-2.3-2.1-3.2c-1-1-2.3-1.6-3.5-2.4
    c-0.8-0.5-1.5-1-0.7-2.1c0.2-0.3,0.1-1-0.2-1.2c-0.8-0.5-1.5-1-1-2.1c0-0.1-0.3-0.2-0.4-0.4c-0.4-0.4-0.9-0.7-1.1-1.1
    c-0.7-1.5-1.2-3.1-1.8-4.7c-0.1-0.2-0.4-0.2-0.9-0.5c0.9,2.6,1.8,4.9,2.6,7.1c0.1,0.4,0.4,1,0.2,1.3c-1.4,2.1-2.9,4.2-4.5,6.2
    c-0.3,0.4-1.2,0.6-1.8,0.5c-3.4-0.5-4.9,0.4-5.6,3.7c-0.1,0.4-0.1,0.8-0.5,1.2c-0.1-0.8-0.1-1.6-0.2-2.3c-0.1-0.6-0.3-1.2-0.6-1.8
    c0-0.1-0.8,0-0.8,0c-0.3,2.1-0.6,4.2-1.3,6.3c-0.2-0.9-0.5-1.8-0.8-3c-0.5,1.2-1.1,1.9-2.1,0.5c-0.2-0.3-1.3,0-1.9,0.2
    c-0.9,0.4-1.4,0.6-2.1-0.4c-0.3-0.5-1.3-0.6-2.1-0.6c-0.3,0-0.6,0.5-0.9,0.7c0.3,0.1,0.6,0.2,0.9,0.3c0.2,0.1,0.4,0.2,0.5,0.4
    c-0.2,0.2-0.3,0.5-0.5,0.6c-0.7,0.2-1.4,0.2-2.1,0.3c-0.3,0.1-0.6,0.3-0.8,0.5c0.2,0.1,0.5,0.3,0.7,0.3c1.7,0,1.7,0.3,0.7,1.7
    c-1.1,1.5-2.7,1.8-4.2,2.3c-1.2,0.3-0.9-0.6-0.7-1.2c0.7-3.1,1.4-6.2,2.1-9.3c0.6-2.6,0.6-2.6-1.8-4.1c2.4-0.4,1.5-1.8,1.2-3.1
    c-0.3-1-0.5-2.1-0.7-3.1c-0.1,0.1-0.4,0.3-0.7,0.6c0-0.5-0.1-1,0-1.5c0.3-1.5,0.6-3,1-4.5c0.3-1.2,1.1-1.7,2.3-1.8
    c1.6-0.1,3.2-0.1,3.9-1.9c0.2-0.6,0.3-1.3,0.6-1.9c0.2-0.5,0.6-1.3,1-1.4c0.6-0.1,0.7,0.3,0.7,1.1c0,2,1.5,3.4,2.9,4.7
    c0.1,0.1,0.4,0,0.6,0c-0.1-0.2,0-0.6-0.2-0.7c-0.9-0.7-1-1.2,0-2.1c1-0.9,1.6-0.9,2.1,0.3c0.4,1.1,0.9,1.2,1.8,0.4
    c0.4-0.3,1.1-0.5,1.6-0.4c2.1,0.2,4.4,1.2,6.3,0.7c1.5-0.4,2,0.5,3,0.7c0.2,0,0.5-0.1,0.6-0.2c0.1-0.2,0-0.5,0-0.7
    c0-1.1-0.2-2.5,1.2-2.9c0.8-0.3,3.1,1.7,3.4,2.7c0.2,1,0.5,1.9,0.8,2.9c0.2,0,0.3-0.1,0.5-0.1c-0.2-1.7-0.2-3.4-0.6-5.1
    c-0.3-1.4,0.2-2.2,1.2-2.8c0.5-0.3,1.4-0.2,2,0.1c0.3,0.2,0.5,0.9,0.6,1.4c0.2,0.9,0.2,1.9,0.5,2.8c0.9,2.7,2.2,5.3,2.8,8.1
    c0.9,4.3,4,6.8,7.2,9.2c0.4,0.3,1.3,0.1,2,0.1c0.1,0.2,0.2,0.4,0.4,0.6c1.2,0.7,2.5,1.3,3.7,1.9c0.6,0.3,1.2,0.4,1.8,0.5
    c0-0.2,0-0.5,0-0.7c-2.1-1.3-4.2-2.6-6.3-4c-0.2-0.1-0.3-0.6-0.4-0.9c0.3,0,0.6,0,0.9,0.1c1.9,0.6,3.9,1.3,5.8,1.9
    c0-0.2,0-0.5,0-0.7c-1.1-0.3-2.3-0.5-3.3-1c-0.5-0.2-1.2-1-1.1-1.5c0-0.5,0.8-1.1,1.4-1.3c1-0.5,2.1-0.7,3.1-1.1c0-3.5,0-8.1,0-11.6
    c-1.8,0-3.8,2.1-5.3,1.2c-1.4-0.8-1.8-3.1-2.5-3.1l-0.6,0.5c1.2,5.1,4.7,4.4,5.3,6.4c0.1,0.4,0.3,0.8,0.5,1.3c-0.4,0-0.9,0-1.3,0.2
    c-1.7,0.6-2.3-0.3-2.8-1.7c-0.4-1-1.2-1.9-1.9-3c-0.1,0.6-0.1,1-0.2,1.5c-0.2-0.2-0.4-0.3-0.4-0.4c-0.3-2.2-0.5-4.4-0.9-6.5
    c-0.4-2.4-1-4.7-1.6-7c-0.3-0.9-0.4-1.6,0.7-2.1c1-0.4,1.1-1.2,0.9-2.2c-0.2-0.8-0.3-1.6-0.4-2.4c0-0.4,0.3-0.9,0.4-1.3
    c0.4,0.4,0.9,0.7,1.3,1.1c0.3,0.3-0.4,1.8,1,0.7c0.1,0.4,0.4,0.7,0.4,1.1c0,0.8-0.1,1.5-0.2,2.3c0.9-0.5,1.9-0.8,2.6-1.4
    c0.9-0.9,1.6-2.2,2.3-3.2c0.2-0.3,0.5-0.6,0.7-0.8c0.3,0.3,0.8,0.7,0.8,1c0,0.6-0.1,1.3-0.4,1.8c-1.3,2.1-2.6,4.1-3.9,6.2
    c-0.3,0.4-0.4,1-0.5,1.5c0,0.2,0.4,0.5,0.7,0.6c0.2,0.1,0.7-0.2,0.7-0.3c-0.1-1.4,1.3-1.4,2-1.9c-0.6-1.1-0.4-2.1,0.4-3.2
    c0.9-1.3,1.6-2.8,2.5-4.2c0-2.1,0-4.2,0-6.3c-2-1.4-4-2.7-6-4.2c-0.5-0.4-1.6-4.6-1.3-4.8c0.6-0.3,1.4-0.3,2.1-0.1
    c0.4,0.1,0.6,0.8,1.2,1.1c-0.3-0.9-0.9-1.7-1-2.6c-0.1-0.8,0.2-1.8,0.7-2.3c0.4-0.3,1.6,0,2.2,0.4c0.8,0.6,1.5,1.5,2.2,2.3
    c0-4.6,0-9.1,0-13.7c-0.5-0.1-1.3,0-1.6-0.3c-1.8-1.9-3.5-3.9-5.2-5.9c0.1-0.1,0.2-0.3,0.3-0.4c0.5,0.3,1,0.6,1.4,0.9
    c0.1-0.1,0.3-0.2,0.4-0.3c-1-1.2-1.8-2.7-3.1-3.6c-1.4-1-1.4-1.9-0.6-3c0.9-1.3,0.9-2.3-0.4-3.3c-0.3-0.2-0.6-0.6-0.5-0.9
    c0.2-2.2-1-3.9-2.2-5.6c-0.1-0.2-0.1-0.6,0.2-1.1c0.8,0.9,1.6,1.8,2.2,2.9c0.7,1.1,1.1,2.3,1.7,3.4c0.1,0.3,0.2,0.6,0.5,0.7
    c2.3,1.6,4.5,3.1,6.8,4.6c0-0.2,0-0.5,0-0.7c-3-2.9-6-5.8-7.9-9.7c0.7,0.8,1.4,1.6,2.1,2.5c0.1-0.1,0.2-0.1,0.2-0.2
    c-0.4-1.2-0.9-2.4-1.2-3.6c-0.1-0.6,0-1.5,0.4-1.8c0.4-0.3,1.4-0.3,2,0c1.5,0.9,2.9,2,4.4,3c0-2.1,0-4.2,0-6.3
    c-0.8-1.6-1.7-3.2-2.5-4.8c-1.5-3.1-3.1-6.3-4.9-9.3c0,0.3,0.1,0.7,0.1,1.4c-0.3-0.4-0.6-0.6-0.6-0.8c-1.5-4.3-3-8.6-4.3-12.9
    c-0.2-0.8,0.1-1.7,0.2-2.6c0.2-2.3,0.5-4.6,0.7-6.9c0.1-0.9,0.3-1.8,0.5-2.8c-0.5-2.3-1.1-4.6-1.6-6.8c0.2,0,0.4-0.1,0.6-0.1
    c0.3,2.3,0.7,4.6,1,7c0.2,0.2,0.5,0.3,0.5,0.5c-0.5,3.5-1,6.9-1.4,10.4c-0.1,0.9,0,1.9,0.4,2.7c1.7,3.5,3.5,6.9,5.3,10.3
    c0.8,1.4,1.5,2.9,2.6,4c0.9,0.9,2.3,1.2,3.5,1.8c0-12.6,0-25.2,0-37.8c-0.5,0.3-1.1,0.7-1.6,1c-0.3,0.2-0.6,0.5-0.9,0.7
    c-0.1-0.4-0.2-0.9-0.2-1.3c0.1-0.6,0.3-1.2,0.6-1.6c0.8-1.2,0.5-2.2,0.1-3.4c-0.5-1.5-1.2-3.3-0.8-4.8c0.3-1.4,1.8-2.6,2.8-3.9
    c0-0.4,0-0.7,0-1.1c-1,1-2.2,1.8-3.1,3c-1,1.3-2.1,2.3-4,2.1c-1-0.1-1.9,0.2-1,1.5c0.1,0.1-0.1,0.7-0.1,0.7
    c-1.8,0.2-1.5,1.7-1.8,2.8c-0.5,1.9-0.8,3.8-1.5,5.7c0.2-2.4,0.4-4.7,0.6-7.1c0.1-0.6,0.3-1.2,0.2-1.7c-0.6-2.3,0.2-3.7,2.4-4.6
    c1.1-0.5,1.3-0.5,1.1,0.7c0.5-1.1,1.1-2.3,1.5-3.4c0.1-0.4-0.3-1.2-0.7-1.6c-1.2-1.2-2.4-2.4-3.7-3.5c-0.8-0.7-0.9-1.4-0.5-2.5
    c0.5-1.3,0.7-2.7,1-4.1c-1.1,2.1-2.7,2.9-3.8,1.9c-0.9-0.8-1.4-2-2-3.1c-0.1-0.1,0.3-0.5,0.4-0.6c2.9-0.4,0-1.6,0.2-2.4
    c0.2-0.6-1.2-0.7-2-0.1c-2,1.7-3.9,3.5-6,5.1c-1.1,0.8-2.4,1.5-3.7,1.6c-3.7,0.4-7.3-0.7-10.7-2.1c-1.9-0.7-3.2-0.5-4.3,1.1
    c-1.9,2.5-4.1,3.2-6.5,1.2c-2.9-2.4-6.6-2.8-9.7-4.5c-3.9-2.1-7.6-4.3-10.5-7.5c-0.4-0.5-0.6-1.3-0.8-1.9c-0.4,0-0.7,0-1.1,0
    c1.2,2.4,2.7,4.5,5.1,5.9c3.1,1.9,6.2,3.8,9,5.5c-2.7-0.3-5.2-1.7-7.4-3.9c0.2,2.2,1.7,3.9,3.7,4.2c0.5,0.1,1,0.1,1.4,0.2
    c3.2,1.2,6.4,2.4,9.6,3.6c2.7,1.1,5.3,1.2,7.7-0.9c1.2-1,2.8-1.4,4.3-0.6c1.5,0.8,2.4,2.8,2.2,4.4c0.2-0.7,0.6-1.5,0.4-2
    c-0.4-1,0-0.8,0.7-0.7c2.8,0.6,5.7,1.2,8.3,1.8c-1.3,1.8-0.9,2.3,3.2,2.8c-0.5-0.3-0.7-0.5-1-0.7c-0.5-0.4-1-0.7-1.5-1.1
    c0.8-0.3,1.7-0.9,2.5-0.7c1.2,0.2,2.6,0.7,3.5,1.5c0.7,0.5,0.9,1.7,1.3,2.6c0.2,0.4,0,1,0.2,1.4c0.1,0.3,0.6,0.5,0.8,0.7
    c0.1-0.3,0.2-0.6,0.2-1c0.1-1.4,0.1-2.7,0.2-4.1c0-0.2,0.3-0.4,0.5-0.6c0.1,0.2,0.3,0.4,0.3,0.6c0.1,1.3,0.1,2.7,0.2,4
    c0,0.7,0,1.5,0.4,1.9c3,3.6,3.2,7.1,0.5,11c-0.6,0.8-0.8,1.8-1.2,2.7c-0.2,0.4-0.7,0.9-1,0.8c-3.1-0.7-6.2-3-5.5-6.9
    c0.3,0.8,0.7,1.4,1.1,2.4c-0.2-2.7-0.4-5-0.5-7.3c0-1.2,0.4-2.5,0.5-3.8c0-0.7-0.2-1.4-0.5-2c-0.1-0.1-0.7,0-1.1-0.1
    c0.1,0.3,0.1,0.7,0.3,0.9c0.2,0.3,0.5,0.5,0.7,0.8c0.1,0.1,0,0.4-0.1,0.6c0,0.1-0.4,0.1-0.5,0c-0.6-0.5-1-1.6-1.9-0.6
    c-0.2,0.3,0.5,1.2,0.9,1.9c-1.4-0.6-2.8-1.3-4.7-2.1c0.7-0.2,1-0.3,1.3-0.4c0.2-0.1,0.5-0.3,0.7-0.4c-0.2-0.2-0.4-0.5-0.7-0.5
    c-1.8-0.4-3.5-1.6-5.7-0.8c-0.9,0.3-2.2,0-3.1-0.3c-1.4-0.5-0.6-1.3-0.1-2c-1.7,1.4-1.8,1.4-2.2-0.8c-0.1-0.6-0.6-1.2-1.2-1.7
    c0.3,0.4,0.6,0.9,0.8,1.3c0.7,1.6-0.4,3.1-2.1,3.5c-1.2,0.3-2.3,1.2-3.4,1.8c0.5-0.2,1.1-0.4,1.6-0.6c0.1,0.1,0.2,0.2,0.2,0.3
    c-0.8,0.8-1.6,1.6-2.3,2.4c-0.2,0.2-0.2,0.5-0.3,0.7c0.3,0,0.7,0.1,0.8-0.1c0.7-0.8,1.4-1.7,2.1-2.4c0.5-0.6,1.2-1,1.7-1.5
    c-0.2,0.7-0.2,1.5-0.5,2.2c-0.2,0.5-0.6,1-1,1.4c-1.8,1.9-1.3,4.6,1.3,6c-0.4-0.8-0.7-1.4-1.2-2.2c0.6,0.2,0.9,0.3,1.3,0.4
    c-0.4-0.7-0.9-1.4-1.1-2.1c-0.2-0.6-0.4-1.7,1-1.2c0.1,0,0.4-0.2,0.5-0.4c0.1-0.6,0.1-1.1,0.2-1.7c0.2-1.9,1.5-2.9,3.5-2.6
    c2.2,0.4,4.2,1,5.9,2.7c0.5,0.5,1.5,0.7,2.3,0.7c3.1,0.3,4.3,1.8,4,4.8c-0.5,4.1,0.6,7.9,3,11.3c0.2,0.4,1.2,0.3,1.9,0.3
    c0.4,0,0.8-0.2,1.2-0.3c-0.1,0.4-0.2,0.8-0.3,1.3c0.4-0.2,0.7-0.4,1.1-0.6c1.1-0.6,1.9-0.4,2.3,0.9c1,3.3,0.5,6.5-0.9,9.5
    c-0.3,0.6-0.6,1.2-0.9,1.9c-0.5,1.1-0.7,2.7-2.6,1.2c-0.2-0.2-0.6-0.1-0.9-0.1c-3,0.2-4.5-1.6-4-4.6c0.1-0.4-0.3-0.9-0.5-1.3
    c-0.5-0.9-1.4-1.7-1.6-2.7c-0.4-2.2-0.5-4.4-0.8-6.6c-0.2-1.3-0.5-2.6-1.1-3.8c0,2,0,4,0,5.9c0,0.4-0.1,0.8-0.1,1.3
    c-0.4-0.1-0.7-0.2-1.1-0.4c-0.6-0.3-1.2-0.7-1.6-1.3c1,0.2,1.9,0.3,2.9,0.5c-0.6-0.4-1.1-1-1.7-1.1c-1.9-0.3-2.9-1.4-3.4-3.1
    c-0.1-0.4-0.3-0.8-0.5-1.1c-0.1-0.2-0.4-0.3-0.7-0.5c-0.1,0.2-0.3,0.5-0.3,0.7c0,0.5,0.2,1.1,0,1.5c-0.2,0.4-0.8,0.6-1.2,0.9
    c-0.1-0.4-0.3-0.8-0.3-1.2c0-0.3,0-0.6,0-1c-0.4,0.2-0.7,0.4-1.1,0.6c-0.1,0,0,0.3-0.1,0.3c-2.6,1.4-4.1,3.7-5.5,6.1
    c-0.1,0.2-0.9,0.3-1,0.2c-0.9-0.7-1.6-1.6-2.5-2.4c-0.4-0.3-1-0.4-1.6-0.7c0,0,0,0,0,0c0.1,0.4,0.1,0.9,0.4,1.1
    c3.4,2.4,3.7,5.8,3.3,9.4c-0.2,1.9-1.1,3.4-2.8,4.4c-1.8,1.1-3.6,2.2-5.2,3.7c0.6-0.2,1.3-0.4,1.9-0.7c0.4-0.2,0.6-0.6,1-0.7
    c0.6-0.2,1.2-0.2,1.9-0.3c-0.4,0.4-0.7,0.7-1.1,1.1c-1.1,1-2.2,2.1-3.4,3c-0.7,0.5-1.8,1.1-2.5,1c-1.6-0.3-3-1.2-3.2-3.1
    c-0.1-1.2-0.2-2.5,0-3.7c0.4-2.2-0.7-3.7-2.1-5.1c-3.2-3.1-6.6-5.9-10.9-7.3c-1.8-0.6-2.8-1.8-3.8-3.2c-0.5-0.7-1-1.4-1.7-2
    c-0.2-0.2-0.8-0.3-1.2-0.1c-0.8,0.2-0.8,0.3-1.1-0.5c-0.1-0.1-0.2-0.3-0.4-0.4c-0.3-0.2-0.6-0.3-0.9-0.4c0.4-0.2,0.8-0.6,1.2-0.7
    c0.6-0.1,1.3,0,1.9,0.2c3.6,1.7,7.2,3.3,10.6,5.3c2.1,1.2,4.2,1.8,6.6,1.3c0.3-0.1,0.6-0.2,0.9-0.1c2,0.6,2.9-0.7,3.8-2
    c0.2-0.3,0.2-0.6,0.3-1c-0.4,0.1-0.8,0.1-1.1,0.3c-0.2,0.1-0.3,0.5-0.4,0.7c-0.4,0.4-0.9,0.8-1.3,1.2c-0.2-0.5-0.5-1-0.6-1.5
    c-0.1-0.5-0.1-1.1,0-1.6c0.1-0.7,0.3-1.5,0.4-2.2c0.9,0.5,2.7-0.6,3,1.4c0,0.2,0.4,0.4,0.6,0.6c1.3-1.6,3.7-2.2,4.2-4.5
    c0-0.2,0-0.5-0.2-0.6c-0.7-1-0.3-2.2,0.9-2.7c0.4-0.1,1-0.5,0.9-0.7c-0.3-3.5,2.6-5.5,4.1-8.2c-1.7,1.4-3.5,2.7-5,4.3
    c-1.6,1.7-2.8,3.7-4.2,5.6c-1,1.3-2.2,2.1-4,1.9c-2.1-0.2-4,0.2-5.6,1.7c0.3-0.5,0.6-1,1.2-1.9c-1.6,0.8-2.8,1.4-4,1.9
    c-0.4,0.2-0.9,0.2-1.4,0.3c-1.7,0.3-3.4,0.6-5,1.1c-0.9,0.3-0.9,0.6-1.6,0.1c-3.7-2.8-7.6-5.6-8.3-10.7c-0.1,0.4-0.2,0.7-0.3,1.1
    c-0.1,0-0.2,0-0.3,0c0.1-0.9,0.1-1.8,0.4-2.6c0.5-1.1-0.1-1.5-1-1.8c-2.3-0.7-4.5-0.4-6.4,1c-1,0.7-1.9,1.4-2.8,2.2
    c-1.6,1.3-3.3,2.7-4.9,4.1c-0.3,0.3-0.4,0.7-0.7,1l0,0c0.2,0.4,0.3,0.8,0.4,0.9c1.6-1.1,3.3-2.8,5.4-3.8c2.5-1.2,4.8-0.4,6.5,1.7
    c-3.2-0.9-6.2-1-8.9,0.8c3.3-1.5,6.1,0,9.1,1.3c-2.1-0.1-3.2,1.6-4.5,2.7c-1.3,1.1-2.4,2.7-3.1,4.2c-2.2,5.3-4.4,10.6-6.3,16
    c-0.6,1.9-0.6,4.3-0.1,6.2c0.9,3.3-0.3,5.6-2.4,7.7c-0.9,0.9-1.9,1.6-3,2.2c-0.8,0.5-1.8,0.7-1.5,2c0,0.2-0.2,0.5-0.3,0.6
    c-2.9,0.6-2.9,3.7-4.6,5.4c-1.1,1.1-1.8,2.8-2.5,4.2c-1,2-1.4,4.1-0.9,6.3c0.5,2.2,0.8,4.5,1.3,6.7c0,0.3,0.2,0.5,0.3,0.7
    c0.2-0.2,0.6-0.3,0.7-0.5c0.2-0.5,0.3-1,0.4-1.5c0.3-2.3,0.3-4.5,0.8-6.7c0.2-0.9,1.3-1.6,2-2.4c1.1-1.3,2.2-2.7,2.5-4.5
    c0.1-0.8,1-1.6,1.4-2.4c0.4-0.7,0.9-1.5,1.1-2.3c0.4-1.6,1.3-2.1,2.8-1.6c1.6,0.6,1.6,0.6,2.2-1.1c0.1-0.3,0.9-0.7,1.3-0.7
    c1.3,0,2.7,0.2,4.4,0.4c-1.8,0.6-3.1,1-4.4,1.5c-0.4,0.1-0.6,0.6-0.9,0.9c0.3,0.2,0.7,0.5,1,0.6c1.3,0.2,2.6,0.3,4,0.6
    c-1.5-0.1-1.6,0.4-1.4,1.7c0.2,0.9-0.3,2.3-1,2.9c-1.2,1.1-1.1,2.4-1.5,3.7c-0.4,1.1-1.1,2.1-1.7,3.1c-0.1,0.2-0.5,0.2-0.7,0.2
    c0-0.3,0-0.6,0.1-0.8c0.3-0.5,0.8-0.8,1.5-1.6c-0.7,0.1-1.2,0.1-1.5,0.3c-0.8,0.6-1.3,0.4-2-0.2c-0.3-0.3-0.8-0.5-1.2-0.5
    c-3.2,0.6-6.1,3.9-6.1,7.1c0,1.6,0.3,3.3,0.6,4.9c0.4,1.9,0.3,3.5-0.5,5.4c-1.4,3.4-3.7,5.2-7,6.3c-1.6,0.5-3,1.7-4.2,2.8
    c-2.5,2.4-2.5,3-5.8,0.7c0.2,0.4,0.4,0.9,0.7,1.2c1.8,2,3.6,4,5.3,6.1c0.9,1.1,1.7,2.4,2.4,3.6c0.2,0.4,0,1.2-0.3,1.5
    c-0.4,0.3-1.2,0.3-1.6,0.1c-5-3.3-10.1-6.6-11.5-12.9c-0.5-2.3-1.1-4.5-1.4-6.8c-0.2-1.2,0-2.4,1.9-2.3c1.5,0,2.3-1.5,2.7-3.4
    c0.2-1,0.8-2,1.6-2.6c1.8-1.4,2-2.5,0.6-4.3c-0.3-0.4-0.3-1.1-0.2-1.6c0.2-1.3,0.7-2.4-0.7-3.5c-0.6-0.5-0.4-1.9-0.6-2.8
    c-0.1-0.4-0.3-0.7-0.5-1c-0.1,0.4-0.2,0.8-0.2,1.2c0.3,1.4,0.7,2.8,0.9,4.2c0.1,0.8-0.2,1.6-0.5,2.3c-0.8,2.1-0.8,4.6-3.2,6.5
    c2.4-4.7,2.9-9,1.5-13.8c-1.8-6.3,1.1-11,7.3-13.5c0.9-0.4,1.9-1,2.5-1.8c2.7-3.7,5.3-7.5,5.2-12.4c0-1.7,0.8-3.1,2.1-4.3
    c1.2-1,2.3-2.1,3.4-3.2c-4.7,2-6.8,7-11.1,9.6c-4.2,2.5-7.6,6.1-11.4,9.3c-0.2-0.2-0.3-0.3-0.5-0.5c3.7-4,7.4-8,11.1-12
    c-0.2-0.2-0.3-0.4-0.5-0.5C79.2,57,78,57.8,77,58.7c-0.9,0.8-1.5,1.9-2.3,2.9c-0.1,0.2-0.4,0.4-0.5,0.4c-1.1-0.2-1.3,0.3-1.4,1.2
    c0,0.2-0.4,0.4-0.7,0.6c-0.1-0.3-0.2-0.6-0.1-0.9c0.8-3,1.9-5.9,4.1-8.3c0.8-0.8,1.1-2,1.6-3c0.1-0.1,0-0.4-0.1-0.5
    c-0.1-0.1-0.4-0.1-0.4,0c-0.3,1-2,0.9-2,2.5c0,0.9-1.3,1.9-2.1,2.8c-0.1-0.2-0.4-0.5-0.4-0.6c0.3-0.5,0.7-1,0.9-1.7
    c-1.1,1-2.1,2.1-3.3,3c-1.7,1.2-3.6,2.3-5.3,3.4c-0.3,0.2-0.8,0.2-0.9,0.5c-1.3,2-3.4,1.8-5.4,1.8c-0.4,0-1.1,0.3-1.1,0.3
    c0.6,2.3-1.7,0.5-2.1,1.4c0,0.1-0.3,0.1-0.4,0c-0.2-0.3-0.4-0.6-0.6-1c-0.7,0.6-1.6,1.1-2.1,1.8c-0.4,0.5-0.3,1.3-0.3,2
    c0,0.1,0.2,0.5,0.4,0.5c1,0,2,1.3,1.5,2.6c-0.7,1.8,0.7,2.4,1.6,3.1c1,0.9,1.2,0.7,0.7,2.4c-0.3,1-0.6,2-0.9,3
    c-1.3,4.8-4.6,8.2-7.8,11.7c-3.2,3.6-6.7,7.1-10.1,10.7c-0.8,0.8-1.7,1.6-2.8,2.2c-2.9,1.5-5.8,1-8.6-0.4c0,0.1,0,0.1,0,0.2
    c-0.7,0.5-1.4,0.9-2,1.4c-0.2-0.2-0.4-0.5-0.5-0.7c0.7-0.3,1.4-0.6,2.1-0.8c0.1-0.1,0.3,0,0.5,0.1c-0.6-0.3-1.4-1-1.7-0.8
    c-0.6,0.4-1.2,1.2-1.5,1.9c-0.4,1.5-1,1.9-2.4,1.1c-0.8-0.4-1.3-0.8-2,0.2c-0.2,0.3-1,0.3-1.5,0.3c-0.9,0-1.9-0.1-2.8-0.1
    c0,0.2-0.1,0.4-0.1,0.5c1.2,0.4,2.4,0.8,3.6,1.2c-1.3,0.7-2.5,1-5.3,0.1c-1.6-0.5-2.8-2.1-4.3-3.2c0.3,0.7,0.4,1.2,0.6,1.7
    c-0.6-0.1-1.3-0.1-1.8-0.4c-0.8-0.4-1.5-0.8-2.3-1.3c-0.3-0.2-0.6-0.5-0.6-0.8c-0.2-2.1-1.7-3.6-4-4c0,0.1,0,0.2,0,0.4
    c1,0.7,2,1.5,2.9,2.2c0.1,0.1,0.1,0.4,0.2,0.6c-0.3,0-0.6,0.2-0.8,0.1c-0.8-0.5-1.6-1-2.4-1.5c0,0.2,0,0.5,0,0.7
    c4.7,3.3,9.5,6.5,14.2,9.9c0.8,0.6,1.7,1.3,2,2.2c0.2,0.6-0.6,1.6-1.1,2.3c-1.3,1.7-2.8,3.3-4.2,4.9c-0.2,0.2-0.2,0.5-0.4,0.6
    c-0.3,0.2-0.8,0.6-1,0.5c-3-2.3-6.1-4.7-9.1-7.1c-0.2-0.1-0.3-0.4-0.4-0.5c0,4.4,0,8.9,0,13.3c0.3,0,0.8-0.2,1-0.1
    c1.5,0.6,1.9,0.2,1.3-1.5c0.1,0,0.3-0.1,0.4-0.1c2.4,1.8,4.9,3.6,7.1,5.6c2.2,2,4.3,4.2,6,6.6c0.9,1.2,1.2,3,1.4,4.5
    c0.2,1.4-1,2-2.2,2c-1.3,0.1-1.3-0.9-1.4-2c0-1.3-0.2-2.5,1.4-3c0.1,0,0.2-0.5,0.2-0.7c-0.2-0.3-0.4-0.6-0.7-0.7
    c-0.2,0-0.6,0.3-0.7,0.6c-0.7,1.3-1.3,2.6-2,3.8c-0.1,0.2-0.7,0.1-1,0.1c0-1.3-0.6-0.9-1.4-0.6c-0.6,0.2-1.4,0.1-2-0.1
    c-2.8-1.1-5.5-2.5-7.3-5c0,1.9,0,3.7,0,5.6c1.5-0.6,2.1,0.1,3,1.3c1.3,1.7,0.4,2.4-0.7,3.2c-1.1,0.7-1.3,1.5-1.2,2.8
    c0.1,0.9-0.1,1.8-0.2,2.7c0.4-1.1,0.7-2.2,1.2-3.3c0.4-0.9,1.1-1.6,1.7-2.3c0.3-0.3,1.2-0.3,1.3-0.2c0.2,0.4,0.4,1.1,0.2,1.5
    c-0.7,1.4-1.4,2.7-2.3,4c-0.3,0.5-0.9,0.8-1.4,1.2c-0.2-0.4-0.5-0.7-0.7-1.1c-0.3,0-0.7-0.1-1-0.1c0,0.8,0,1.6,0,2.5
    c0.8,0.8,1.7,4.6,1.1,5.4c-0.2,0.3-0.8,0.4-1.1,0.6c0,3.9,0,7.7,0,11.6c4.9,0.2,9.8,0.5,14.7,0.6c3.4,0.1,6.3-1.5,9.1-3.1
    c0.6-0.3,1.2-0.7,1.9-0.9c-0.4,0.5-0.8,0.9-1.2,1.4c0.1,0.1,0.2,0.2,0.2,0.4c0.7-0.4,1.3-1,2.1-1.2c0.6-0.2,1.3-0.1,2-0.1
    c0,0-0.1-0.3-0.2-0.6c-0.2-0.3-0.4-0.6-0.7-0.9c0.4-0.1,0.8-0.3,1.1-0.2c0.3,0.1,0.5,0.5,0.8,0.7c0.2,0.2,0.5,0.4,0.7,0.3
    c1-0.3,1.9-0.7,2.5,0.6c0.6,1.3,0.7,2.5-0.5,3.3c-1,0.7-0.7,1-0.2,2c1.4,2.7,3.1,5.3,2.6,8.5c0,0.3,0,0.8,0.1,1
    c1.7,1.2,0.3,1.8-0.5,2.6c-1.6,1.5-3.2,3-4.8,4.5c-0.3,0.3-0.4,0.7-0.6,1l0-0.1c-1.9,2.5-1.7,5,0,7.5c1.7,0,3.3,0,5,0
    c0.2-2.2,0.3-4.3,0.5-6.5c0.2-2.7,1.7-4.7,3.7-6.1c3.5-2.4,7.1-4.6,10.8-6.6c2.2-1.2,4.7-1.7,7.1-2.5c0.1,0.2,0.2,0.4,0.3,0.6
    c-1.5,0.7-3.1,1.4-4.6,2.2c0.1,0.2,0.1,0.3,0.2,0.5c3.2-0.9,6.4-1.8,9.6-2.8c0.4-0.1,1.1-0.6,1.1-0.9c0-0.5-0.5-1-0.9-1.4
    c-0.3-0.3-0.8-0.5-1.2-0.7c-0.3-0.1-0.7-0.1-1.1-0.2c0.2,0.4,0.4,0.8,0.6,1.1c0.1,0.1,0.4,0,0.5,0.1c0.3,0.2,0.5,0.4,0.8,0.7
    c-0.4,0.1-0.8,0.4-1.2,0.3c-2.9-0.7-4.8-2.6-6.5-4.8c-0.3-0.4-0.5-0.8-0.7-1.2c-0.1,0.1-0.3,0.2-0.4,0.2c0.6,0.9,1,2,1.8,2.8
    c1,1,0.8,1.9,0.1,2.6c-0.5,0.5-1.8,1-2.4,0.7c-2.1-0.9-4.1-2.1-6-3.1c0,0,0.1,0.3,0.2,0.6c0.2,0.6,0.5,1.1,0.7,1.7
    c-1,0.3-1.9,0.7-2.9,0.8c-0.3,0-0.8-0.9-1-1.4c-1.1-3.2-2.6-6.3-2.5-9.7c0-2-0.1-4.1,2.2-5.1c0.6-0.2,1.3-0.1,2-0.1
    c-0.2,0.6-0.3,1.2-0.7,1.7c-0.6,0.9-1.2,1.8-2.5,1.3c-0.1,0-0.5,0.6-0.5,0.6c1.7,1.7,1.5,4.2,2.6,6.2c0.4,0.7,0.9,1.4,1.3,2.1
    c0.1-0.1,0.3-0.2,0.4-0.3c-0.3-0.5-0.8-0.9-0.9-1.4c-0.2-0.9-1.5-1.7,0.3-2.7c0.8-0.4,0.7-2.1,1.3-3.1c1.6-2.4,3.3-4.8,5-7.1
    c0.1-0.2,0.5-0.2,0.7-0.3c0,0.3,0.2,0.6,0.1,0.8c-0.4,0.7-0.9,1.3-1.4,2c-0.8,1.2-1.6,2.3-2.3,3.5c0.2,0.1,0.3,0.2,0.5,0.3
    c0.4-0.5,0.9-1.1,1.5-1.9c0,0.8,0,1.3,0,1.8c0.2,0,0.3,0,0.4,0c1-1.5,2.1-3,3-4.7c0.6-1.1,0.7-2.4,1-3.6c0.2-0.5,0.5-1,0.8-1.5
    c0.4,0.2,0.7,0.4,1.2,0.7c0.2-1.1,0.5-2.2,0.7-3.2c-0.1-0.1-0.2-0.2-0.4-0.3c-1.4,1.4-2.8,2.8-4.1,4.1c-0.3-1.6-0.2-1.9,1.2-3.3
    c0.2-0.2,0.5-0.5,0.5-0.7c0-1.4,0.3-2.5,2-2.8c0.2,0,0.3-0.5,0.3-0.7c0-0.1-0.5-0.4-0.6-0.3c-1.3,0.3-0.9-0.6-0.6-0.9
    c1.4-1.4,3-2.8,4.5-4.1c0,0,0.6,0.4,0.6,0.6c0.1,2-0.2,3.9-1.6,5.5c-0.3,0.3-0.3,0.7-0.4,1.1c0.1,0.1,0.2,0.2,0.4,0.3
    c0.6-0.7,1.1-1.5,1.7-2.2c0.5-0.7,1-1.5,1.5-2.2c0.4-0.5,1.3-1-0.3-0.8c0.1-1.2,0.1-2.4,0.3-3.6c0.1-0.5,0.8-0.8,1.2-1.3
    c0.7-0.9,1.3-1.4,2.2-0.3c0.2,0.2,0.6,0.2,1,0.3c-0.1-0.3-0.3-0.6-0.2-0.7c0.1-0.3,0.5-0.6,0.7-0.6c3.2-0.5,6.3-1.3,9.3-2.6
    c1.6-0.7,3.8-0.1,5.7-0.2c1.4,0,2.7-0.2,4.1-0.2c0.6,0,1.2,0.2,1.7,0.6c0.3,0.2,0.4,0.9,0.7,1.2c0.7,0.8,0.8,1.3-0.4,1.7
    c-1.5,0.5-1.4,2-1.2,3.2c0.3,1.7,0.3,3.3-0.3,4.9c-0.3,0.9-0.6,2.1,1.1,2c0.2,0,0.6,0.5,0.6,0.7c-0.4,2.6-0.8,5.3-1.2,7.9
    c0,0.1-0.6,0.2-0.8,0.1c-0.3-0.1-0.4-0.4-0.6-0.7c-0.1,0.3-0.3,0.6-0.4,0.9c-0.2,0.4-0.3,0.8-0.9,1.2c-0.5-5.5-0.9-11.1-1.4-17.1
    c-0.3,1.7-0.6,2.9-0.7,4.1c-0.2,1.3-0.2,2.6-0.7,3.9c0-3.6,0-7.2,0-10.4c-0.3,3.9-0.8,8.1-0.8,12.3c0,5-1.9,9.2-5,13
    c-1.8,2.2-2.6,4.4-2.3,7.2c0.2,1.5-0.3,2.6-1.7,3.5c-2.5,1.7-5,3.5-7.4,5.4c-0.7,0.5-1.3,1.2-1.6,1.9c-1.4,3.6-8.1,7.2-9.2,10.8
    c-0.5,1.5,0.2,3.2,0,4.8c8.1,0,20.9,0,29,0C83.7,198,84.2,196,84.7,194.1z M89.1,119.6c-0.5,1.5,0,3-1.7,3.3c-0.1,0-0.4-1-0.6-1.5
    c-0.4,0.1-0.8,0.3-1.2,0.4c0.1-0.5,0-1.1,0.3-1.4c0.4-0.5,1-0.9,1.7-1.2c-0.3,0.7-0.5,1.5-0.8,2.2C87.4,121,88.1,120.5,89.1,119.6z
     M186.3,69c0.5,0.8,0.9,1.6,1.2,2.4c0.1,0.4-0.3,0.9-0.5,1.4c-0.5-0.4-1.3-0.7-1.5-1.2c-0.3-0.6-0.2-1.4-0.3-2.1
    c-0.9,0.2-1.9,0.5-2.8,0.6c-0.2,0-0.5-0.5-0.7-0.8c0.3,0,0.6-0.1,0.9-0.1c0.9,0.1,1.7,0.2,2.6,0.4C185.6,69.3,186.3,69,186.3,69z
     M68.5,132.2c-2.2,1.5-4.5,3-6.8,4.4c-0.1-0.2-0.3-0.4-0.4-0.6c2.6-1.7,5.3-3.4,7.9-5.1c1.5-0.9,3-1.9,4.6-2.8
    c0.3-0.2,0.8,0.2,1.3,0.3c-0.2,0.7-0.2,1.7-0.6,1.9c-1.6,0.7-3.4,1.3-5.3,0.6C69,131.4,68.9,132,68.5,132.2z M173.2,54.9
    c-0.9,1.1-2.3,1.9-3.7,2.3c-0.9,0.3-1.9-1.3-2-2.9c0.5,0.4,1,0.9,1.5,1.2c0.5,0.3,1.1,0.4,1.6,0.6c-0.1-0.4-0.4-0.9-0.3-1.3
    c0.1-0.5,0.5-1,0.8-1.4c0.3-0.5,0.7-1,1-1.4c-0.5,0.3-1,0.6-1.6,0.8c-0.5,0.2-1.5,0.4-1.6,0.3c-0.4-0.7-0.6-1.5-0.8-2.4
    c0-0.1,0.3-0.3,0.5-0.4c1.2-0.4,3.1,0.6,3.5,1.8C173.4,52.6,174,53.9,173.2,54.9z M140.9,121.7c0.3-0.2,1.1,0.1,1.5,0.4
    c0.2,0.1,0.3,0.6,0.3,1c0,0.8-0.1,1.7-0.1,2.5c-0.8-0.2-1.5-0.4-2.3-0.6c0.4,0.4,0.8,1,1.4,1.1c2.2,0.5,2,2,1.7,3.6
    c-0.1,0.7,0,1.5,0.1,2.3c0.1,2,0.6,4,0.3,5.9c-0.6,3.2-0.3,6.3,0.7,9.4c-0.1,0-0.3,0.1-0.4,0.1c-0.7-2.2-1.6-4.5-2.1-6.8
    c-0.5-2.3-0.7-4.7-1.2-7c-0.1-0.4-0.5-0.7-0.8-1c-0.9-0.8-2.2-1.3-1.6-2.9c0-0.1-0.1-0.3-0.2-0.4c-0.6,0.3-1.3,0.5-1.8,0.9
    c-0.9,0.8-1.6,1.8-2.5,2.7c-0.3,0.3-0.9,0.2-1.4,0.3c-0.1-0.4-0.3-0.9-0.1-1.3c0.5-1,1.2-2,1.8-2.9c0.7-1.1,1.7-1.3,2.9-0.7
    c0.1,0,0.3,0,0.3-0.1c0.1-0.4,0.2-0.8,0.3-1.2c0.3,0.4,0.5,1,0.8,1c0.7,0.1,1.5-0.1,2.2-0.3c0.1,0,0.3-0.3,0.3-0.4
    c-0.1-0.2-0.3-0.3-0.5-0.4c-0.2-0.1-0.6,0-0.7-0.1c-0.4-0.4-0.7-0.9-1-1.3c0.5-0.2,0.9-0.3,1.4-0.5
    C140,123.8,139.4,122.5,140.9,121.7z M152.5,117.2c-0.1,0-0.1,0-0.2,0c-0.9-0.3-1.7-0.7-2.6-1.1c0.7-0.5,1.3-1.4,2.1-1.6
    c0.9-0.2,1.9,0.2,0.8-1.2c-0.1-0.1,0.4-0.8,0.7-0.8c0.7,0,1.4,0,2.1,0.3c1.7,0.6,3.4,1.2,4.9,2c0.7,0.4,1.2,1.4,1.7,2.1
    c-0.8,0.2-1.5,0.5-2.3,0.7c-0.2,0.1-0.5,0-0.7,0c0.5,0.2,1,0.7,1.4,0.6c1.6-0.4,2.2,0.8,2.8,1.7c1,1.5,0.9,3.2,0.2,4.8
    c-0.1,0.3-0.8,0.6-1.2,0.5c-2-0.1-4.1-0.2-6.1-0.5c-2.3-0.4-3.8-2-4.8-4c-0.6-1.2-0.1-2.3,1.3-2.5c2.1-0.3,4.3-0.4,6.5-0.6
    C156.9,117.3,154.8,116.4,152.5,117.2z M35.9,147.3c-1.3-2-2.6-2.3-5.6-1.6c0.4-0.3,0.7-0.5,1.1-0.8c0.4-0.2,0.8-0.4,1.2-0.6
    c-0.1-0.2-0.2-0.3-0.2-0.5c-1,0.5-1.9,0.9-2.9,1.5c-0.4,0.2-0.6,0.8-1,1c-0.5,0.3-1.1,0.3-1.7,0.5c0.2-0.5,0.5-0.9,0.6-1.4
    c0.1-0.6,0.3-1.3,0.1-1.7c-0.3-0.5-1-0.8-1.5-1.1c0.1-0.2,0.3-0.3,0.4-0.5c0.4,0.1,0.8,0.3,1.2,0.4c0.5,0.2,1,0.3,1.4,0.5
    c-0.1-0.8,0.1-1.8-0.3-2.3c-1-1.3-2.3-2.3-3.4-3.5c-0.4-0.4-0.7-0.8-0.8-1.3c-0.1-0.4,0.1-1.2,0.3-1.3c0.5-0.1,1.1,0,1.6,0.3
    c0.3,0.2,0.3,0.8,0.6,1c0.3,0.3,0.8,0.3,1.3,0.5c-0.1-0.4-0.1-0.9-0.2-1.3c0-0.2-0.2-0.3-0.3-0.4c1.7-0.4,3.3-0.7,4.9-1.1
    c0.3-0.1,0.6-0.5,0.9-0.8c-0.3-0.1-0.6-0.2-0.9-0.3c-0.4-0.3-0.7-0.7-1-1c-0.1-0.1,0.2-0.6,0.4-0.7c0.5,0,1.2-0.1,1.5,0.2
    c1.4,1,2.8,2.1,4.2,3.1c0.3,0.2,0.7,0.2,1.1,0.2c-0.2-0.2-0.3-0.5-0.6-0.7c-1.3-1.4-1.4-2.3-0.2-2.7c0.3-0.1,1-0.1,1.1,0.1
    c1,1.6,3.1,2.3,3.6,4.5c0.5,1.9,2.1,3.6,3.9,4.8c0.3,0.2,0.6,0.7,0.5,0.8c-1.7,2.8-2.5,6.2-5.5,8.2c-1.6,1.1-3.4,1.1-5.1,0.1
    c-1.2,1.4-1.9,1.5-3,0.3c-0.5-0.5-1.2-0.9-1.8-1.4c-0.4-0.3-0.7-0.7-1-1.1c0.5-0.2,1.1-0.7,1.5-0.6c1,0.2,1.9,0.7,2.8,1.2
    c0.6,0.4,1.1,1.1,1.6,1.6C36.4,148.6,36.3,147.9,35.9,147.3z M53,134.8c-0.2,0.4,0.3,1.2,0.5,1.8c-4.3-0.4-7.3-2.6-8.3-7
    c-0.1-0.4-0.2-0.8-0.4-1.1c-0.7-1.4-0.6-2.5,1.3-2.8c1-0.2,1.5-0.7,0.7-1.6c-0.2-0.2-0.7-0.2-1-0.1c-0.3,0.1-0.5,0.3-0.8,0.4
    c-0.1-0.3-0.3-0.5-0.3-0.8c0.3-4.6-3.3-7-6.3-9.5c-2-1.7-4.1-3.2-5.7-5.4c-0.6-0.8-0.6-1.1,0.1-1.6c2.3-1.6,4.7-3.2,7-4.8
    c1.3-0.9,1,0.6,1,0.8c-0.3,1.1-0.5,2,0.7,2.8c0.1,0.1,0,0.7-0.1,1c-1.1,5.3,0.4,8.3,5.5,10.6c0.5,0.2,1,0.4,1.5,0.7
    c0.6,0.2,1.4,0.4,0.3,1.1c-0.3,0.2-0.3,1.3-0.2,1.4c0.7,0.3,1.7,0.8,2.2,0.5c1.6-0.7,2.2,0.2,2.8,1.2c0.9,1.3,1.1,2.8,0.2,4.1
    c-0.3,0.5-1.5,0.4-2.3,0.5c-1.2,0.1-2.4,0.3-3.6,0.3c-0.7,0-1.3-0.3-2-0.4c-0.2,0-0.5,0.1-0.8,0.2c0.1,0.2,0.2,0.4,0.4,0.5
    c1.1,0.5,2.1,1,3.2,1.3c1.1,0.2,1.7,0.5,0.7,1.5c-0.8,0.9-0.4,1.4,0.3,2c0.7,0.5,0.9,2.1,2.4,0.9c1.6-1.2,3.3-2.3,5.1-3.2
    c1.4-0.7,3-1,4.4-1.5c0.5-0.2,1.1-0.4,1.5-0.8c1.5-1.4,3-2.8,4.5-4.1c0.1-0.1,0.3-0.3,0.4-0.3c2.4,0.8,2.6-1.5,3.5-2.5
    c0.7-0.8,1.1-0.8,1.6-0.1c0.9,1.2,1.8,2.5,2.3,3.9c0.2,0.4-0.7,1.4-1.3,1.8c-1.5,1-3.2,1.7-4.7,2.7c-2.4,1.8-4.6,4.1-7.1,5.7
    c-1.8,1.2-4.1,1.7-6.3,2.3c-1.1,0.3-1.7-0.3-1.4-1.5c0.2-0.9,0.5-1.8,0.9-3C54.5,133.4,53.5,134,53,134.8z M170.4,96.5
    c0.2-0.1,0.3-0.1,0.5-0.2c0.3,0.8,0.8,1.5,1,2.3c0.2,0.7,0.2,1.5,0.3,2.2c0,0.3,0.2,0.5,0.3,0.7c0.2-0.1,0.6-0.3,0.7-0.5
    c0.4-1.3,1.2-0.8,1.9-0.4c0.5,0.3,0.9,0.7,1.2,1.2c1.8,3,3.5,6,5.2,9.1c0.2,0.4,0.4,1,0.3,1.5c-0.1,0.7,0.2,1.7-1.5,1.2
    c-2.9-0.8-2.9-0.6-1.4-3.6c-0.7,0.5-1,0.9-1.4,1.1c-0.4,0.2-0.9,0.2-1.3,0.2c-0.1-0.3-0.1-0.7-0.2-1c0-0.1,0.1-0.3,0.1-0.3
    c-2.3-0.9,0.2-1.8,0-2.8c-1.3,1.2-2.6,2.4-3.8,3.6c-0.1,0.1,0.4,1.1,0.6,1.1c0.6,0.1,1.3-0.3,1.9-0.3c0.5,0,1,0.5,1.5,0.7
    c-0.3,0.3-0.6,0.7-0.8,1c-0.3,0.4-0.6,0.9-0.9,1.4c0.5,0.1,1,0.3,1.5,0.3c0.5,0.1,1.6-0.4,0.6,0.8c0.3,0.1,0.6,0.3,0.8,0.3
    c1.2-0.3,2.5-0.8,3.7-1.1c0.5-0.1,1.2-0.2,1.4,0c0.3,0.3,0.2,1,0.1,1.4c-0.5,1.7-4.5,2.9-6.2,1.9c-1.8-1.1-3.8-2.1-4.6-4.4
    c-0.1-0.4-1.5-0.7-2.1-0.5c-2.2,0.8-4.2,0.1-5.9-0.9c-0.8-0.5-1.1-1.9-1.3-2.9c-0.1-0.9,0.5-1.8,0.6-2.7c0.1-0.5-0.1-1.2-0.3-1.7
    c-0.4-1.1-2.4-2.2,0.3-3c0.2,0,0.2-0.4,0.3-0.6c0.4-1.2,1.2-1.5,2.4-1.5c0.7,0,1.5-0.8,2.1-1.4c0.5-0.5,0.8-1.1,1.2-1.7
    c0.2,0.5,0.5,1,1,2C170.3,97.8,170.4,97.1,170.4,96.5z M65,110.6c-1-0.5-2.1-0.9-3-1.4c-0.3-0.1-0.4-0.9-0.3-1.1
    c1.6-1.8,1.7-2.9,0.3-4.8c-0.2-0.2-0.3-0.5-0.5-0.7c-0.7-0.7-1.4-1.4-2.2-2.1c-0.6,1.1-1.4,2.2-1.9,3.4c-0.2,0.6,0,1.3-0.2,2
    c-0.5-1.3-1.1-2.5,0.1-3.9c0.5-0.6,0.4-1.8,0.6-2.7c0.1-0.2,0.1-0.7,0.2-0.7c2.2-0.1,0.8-1,0.5-1.7c-0.4-0.8-0.7-1.7-1.2-2.5
    c-0.3-0.4-0.8-0.7-1.2-1c-0.1-0.1-0.4-0.3-0.4-0.3c0.2-0.4,0.4-0.8,0.6-1.1c0.3-0.3,0.7-0.6,1-0.9c0.1-0.1,0-0.4-0.1-0.6
    c-2.3,0.7-1.2-1.3-1.3-1.9c-0.2-1.8-0.1-3.6-0.4-5.8c-0.1,0.3-0.2,0.5-0.2,0.8c-0.2,2-0.4,4-0.6,6c0,0.3-0.1,0.7-0.2,1
    c-0.2-0.2-0.4-0.4-0.7-0.6c-0.2-0.1-0.6-0.2-0.6-0.2c-0.2,0.3-0.3,0.7-0.4,1.1c-0.3,1.3-0.6,2.5-1.1,3.8c-0.1,0.3-0.6,0.4-1,0.6
    c0.1-0.3,0.2-0.7,0.2-1c0-0.6,0-1.3,0-1.9c-0.6,0.3-1.3,0.4-1.7,0.8c-1.2,1.3-2.1,2.8-3.4,3.9c-0.7,0.6-1.9,0.8-2.9,1.1
    c-0.4,0.1-0.7,0.3-1,0.6c-1.9,1.7-3.7,3.3-5.6,5c-0.2-0.1-0.3-0.3-0.5-0.4c1.7-1.9,3.3-3.9,5-5.7c3.3-3.4,6.8-6.6,9.9-10
    c1.8-2,3.2-4.5,4.7-6.7c0.2-0.3,0.3-0.8,0.6-1c0.5-0.4,1.1-0.7,1.7-1.1c0.2,0.6,0.6,1.2,0.6,1.8c-0.3,5,1.7,9.6,2.8,14.4
    c0.7,3.2,1.5,6.3,3.1,9.2c0.6,1.2,0.2,3,0.8,4.2c1.3,2.3,1.9,5,4.2,6.8c0.3,0.3,0.3,1.1,0.4,1.6c-0.5,0-1-0.3-1.4-0.1
    c-0.7,0.4-1.2,0.9-1.8,1.5c-0.2,0.2-0.3,0.4-0.4,0.6c-0.2-0.2-0.4-0.4-0.5-0.6c-0.1-0.2-0.1-0.5-0.2-0.7c-0.3-0.3-0.6-0.6-0.9-0.9
    c-0.3,0.3-0.7,0.6-0.9,0.9c-0.3,0.4-0.4,0.8-0.7,1.2c-0.3-0.4-0.9-0.7-1-1.2c-0.2-1.5-0.2-2.9-2.5-2c-0.2,0.1-0.7-0.8-1.1-1.2
    c0.3-0.2,0.6-0.5,1-0.7c0.9-0.6,1.7-1.7,3.1-0.7c0.1,0.1,0.4,0,0.5-0.1c1.8-1.1,1.8-1.1,3.3,0.8C66.9,112,66.1,111.2,65,110.6z
     M161.3,140.6c-1.1,0.3-2.2,0.6-3.4,0.9c-0.3,0.1-0.9,0.1-1,0.3c-1.3,2.5-3.7,1.3-5.4,1.2c-1.2-0.1-2.7-1.9-3.4-3.3
    c-0.8-1.6-0.8-3.5-1-5.2c0-0.2,0.5-0.6,0.7-0.9c0.2,0.3,0.4,0.5,0.5,0.8c0.4,0.9,0.7,1.7,1.3,2.5c-0.3-1.3-0.6-2.7-0.8-4
    c-0.5-3-1-6-1.5-8.9c-0.1-0.3,0.2-0.7,0.3-1c0.2,0.2,0.5,0.5,0.6,0.8c0.2,0.9-0.3,2.2,1.5,2.3c0.2,0,0.3,2.2,0.4,3.4
    c0,0.6-0.2,1.1-0.2,1.7c0,0.2,0.6,0.5,0.8,0.5c1.2-0.7,1.6,0.2,2.2,0.9c0.5,0.7,0.9,1.5,1.5,2.2c0.2,0.2,0.5,0.6,0.7,0.6
    c0.4-0.1,1-0.4,1-0.6c0.1-1.1,0.4-2.9-0.1-3.1c-1-0.5-0.8-1.4-1.3-1.9c-1.4-1.4-0.5-2.8,0.3-3.7c0.4-0.5,2-0.1,3,0
    c0.6,0,1.2,0.1,1.7,0.2c1.4,0.3,2.9,0.4,4.2,1c0.9,0.4,1.2,1.5,0.5,2.6c-0.1,0.2,0,0.9,0.2,1c1.4,1,1.3,2.1-0.3,2.8
    c-1,0.4-1.2,0.7-0.1,1.3c1,0.6,1,1.5,0,2.1c-0.7,0.4-1.6,0.7-2.5,0.9c-0.2,0.1-0.9-0.4-0.9-0.6c0.2-1.4-0.6-0.7-1.2-0.6
    c-1.6,0.4-3.2,0.8-4.7,1.2c-0.2,0.1-1.6-0.4-0.4,0.6c-0.6,0.1-1.1,0.2-1.7,0.3C154.9,141.1,158.3,139.8,161.3,140.6z M47.6,146.5
    c1.3-1.7,2.7-3.4,4.1-5.1c1.2-1.6,2.7-2.8,4.9-2.7c2.1,0.2,3.8-0.6,5.6-1.8c2.7-1.7,5.6-3.3,8.6-4.5c1.7-0.7,3.7-0.6,5.6-0.8
    c0.6-0.1,1.2-0.2,1.8-0.3c0.3-0.1,0.6-0.3,1-0.4c-0.2-0.2-0.5-0.4-0.7-0.6c-0.3-0.3-0.5-0.7-0.8-1.1c-0.2-0.3-0.7-0.4-0.8-0.7
    c-0.2-0.5-0.6-1.3-0.4-1.5c0.6-0.5,1.8-1.4,2.2-1.2c1.8,1,3.6,2.3,5.1,3.7c1.5,1.4,0.7,4.2-1.3,4.9c-3.8,1.5-7.6,2.8-11.5,4
    c-1.1,0.3-2.2,0.4-3.3,0.5c-3.3,0.2-6.1,1.4-8.6,3.6c-2.7,2.5-5.7,4.7-8.7,7.2c0.4-1.3,0.7-2.6,1.2-3.7c0.1-0.3,0.8-0.6,1.2-0.6
    c1.5-0.2,2.4-0.7,2.6-2.3c0.1-0.7,0.6-1.3,0.9-2c0.1-0.3,0.2-0.7,0.3-1.1c-0.4,0.2-0.9,0.2-1.1,0.5c-3.2,3.2-6.3,6.4-9.4,9.6
    c-0.1,0.1-0.3,0.2-0.4,0.2c-0.1-0.1-0.2-0.2-0.4-0.3C45.8,149.1,46.6,147.7,47.6,146.5z M112.4,92.6c-0.5,0.1-0.9,0.2-1.4,0.2
    c0-0.5,0-1.1,0.1-1.6c0.1-0.4,0.6-0.6,0.7-1c0-0.4-0.2-1.2-0.4-1.2c-1.7-0.3-2.4-1.6-3.1-2.8c-0.2-0.4-0.9-0.5-1.4-0.8
    c0,0.3-0.2,0.7-0.1,0.9c2.4,2.8,3,3.5-0.1,6.1c0,0-0.1,0.1-0.1,0.1c-0.8,0.7-1.6,1.4-2.4,2c0.1-1.1-0.1-2.2,0.2-3.3
    c0.8-3.4,1.7-6.8,2.7-10.1c0.4-1.3,1.4-1.7,2.6-1.1c1.5,0.7,3,1.3,4.5,1.8c1.3,0.4,2.4,1.1,4,0.8c0.6-0.1,2.8,0.7,2.6,2.6
    c0,0.2,0.1,0.5,0.2,0.6c1,0.9,1,1.2,0.5,3.1c-0.3,1.3-1,1.9-2.3,1.8c-0.5,0-1.1,0.3-1.6,0.5c-0.5,0.2-1,0.4-1.5,0.5
    c-0.1-0.2-0.1-0.3-0.2-0.5C114.7,91.8,113.6,92.2,112.4,92.6z M166.4,58.8c-0.3,1.4-0.9,2.8-1,4.2c-0.1,4-2.1,7.1-4.8,9.7
    c-1.6,1.5-4.2,2.1-6.4,3c-1.1,0.5-2.3,0.7-3.3,1.1c-1.4,0.6-3,0.1-3.7-1.1c-0.7-1.1-0.2-2.1,1.1-2.1c3.4-0.1,6.1-1.9,8.9-3.6
    c0.1-0.1,0.3-0.2,0.3-0.3c-0.2-2.8,2.2-4.5,3-6.9c0.8-2.6,2.1-5.1,3.2-7.7c0.3-0.6,0.9-1,1.3-1.5c0.4,0.4,0.9,0.8,1.2,1.3
    c0.4,0.6,0.5,1.4,0.7,2.1C166.7,57.7,166.5,58.3,166.4,58.8z M171.1,94.9c-1.6-0.4-2.4-1.6-2.6-3.2c-0.3-2.6,0.6-4.1,3-5
    c1.4-0.5,1.8,0.8,2.6,1.4c0.6,0.5,0.9,1.1,2,0.4c2.3-1.5,4.1-0.9,5.3,1.6c0.9,1.9,1.3,4,1.8,6c0.5,2-0.8,3.1-2.4,4
    c-1.6,0.9-3-0.1-4.2-1.1c-1.7-1.4-2.4-3.2-2.3-5.7C173.7,94.6,172.7,95.3,171.1,94.9z M42,124.1c-1.2-0.4-2.4-1.1-3.5-1.7
    c-2-1.1-4.1-2.2-6.1-3.2c-2.9-1.4-3.6-3.8-1.8-6.5c0.2-0.2,0.2-0.6,0.3-0.9c-0.3,0.1-0.8,0.1-1,0.4c-1.1,1.3-1.9,1.2-2.9-0.1
    c-1.1-1.4-2.3-2.6-3.4-3.9c-0.3-0.4-0.5-1.2-0.3-1.6c0.2-0.4,1.1-0.7,1.5-0.5c1,0.3,2.2,0.7,2.7,1.5c1.2,1.7,3,2.5,4.7,3.5
    c1.9,1.2,3.8,2.3,5.6,3.6c3,2,5.2,4.6,5.7,8.3C43.6,124,42.9,124.4,42,124.1z M70,95.8c0,0.8,0.1,1.6-0.2,2.3
    c-0.4,1.2-0.9,2.2-1.5,3.4c-0.1,0.2-0.3,0.4-0.4,0.5c-0.1-0.2-0.3-0.4-0.4-0.6c-0.6-1.8-1-3.7-1.7-5.5c-0.4-1.2-1.3-2.2-1.8-3.3
    c-0.6-1.5-0.1-2.6,1.6-3.1c0.5-0.1,1-0.5,1.4-0.7c1.4-0.6,1.7-1.7,0.9-2.9c-1.4-2.2-1.7-4.5-0.8-6.8c0.4-1.1,1.3-2.1,2.1-3
    c0.6-0.7,1.4-1.3,2.1-1.8c0.3-0.2,0.6-0.2,1-0.4c0.1,0.4,0.2,0.8,0.3,1.1c0,0.1-0.1,0.3-0.2,0.5c-3,3.1-1.8,6.7-1.5,10.3
    c0.2,1.6,0.3,3.2,0.4,4.7c0,0.3-0.2,0.7-0.4,0.9c-2.4,1.4-1.2,4-2.1,5.9C69.2,96.7,69.6,96.3,70,95.8z M180.3,148.4
    c-0.1-0.2-0.5-0.3-0.7-0.3c-0.3,0.1-0.5,0.3-0.7,0.5c-2.6,2.9-5.8,3.4-9.4,1.9c-0.7-0.3-1.4-0.8-2-1.2c0.1-0.2,0.3-0.4,0.4-0.4
    c1,0,1.9-1.1,3.1,0c0.8,0.8,2.2,1.3,3.3,1.3c1-0.1,2-1,2.8-1.7c1.1-1.2,1.9-2.6,3.1-3.8c1.6-1.6,3.3-1.4,4.2,0.7
    c1,2.4,2.4,5.1,2.1,7.5c-0.3,3.1,0.5,6,0.3,9c0,0.5-0.3,1-0.4,1.4c-0.5-0.2-1.3-0.3-1.5-0.7c-0.5-0.9-1-2-1.1-3
    c-0.1-0.9,0-1.6-1-2.3c-0.7-0.5-1.1-1.9-1.1-2.8c0-0.9,0.1-2.4,1.5-1.8C182.1,151.2,181.2,149.8,180.3,148.4z M62,80.5
    c0.7-2.7,3-4.2,4.7-6c2.8-2.8,6.1-5.2,9.1-7.8c2-1.7,3.8-3.7,5.8-5.4c1.4-1.3,3.1-2.3,4.9-3.4c-1.1,1.2-2.1,2.4-3.2,3.7
    c-1.1,1.2-2.2,2.5-3.3,3.7c-0.6,0.6-1.3,1-1.9,1.5c-3.7,3.2-7.3,6.4-10.9,9.8c-0.9,0.9-1.7,2.2-2.1,3.4c-0.3,1.2-0.1,2.6,0,3.8
    c0.1,1.1,0.5,2.2,0.4,3.3c0,1.1-0.5,2-1.9,1.5c-0.1,0-0.8,0.6-0.7,0.8c0.1,1.1,0.4,2.2,0.6,3.8C60.9,89,60.9,84.8,62,80.5z
     M18.8,149.5c-0.7-2-0.6-4.3-0.7-6.5c-0.1-0.9-0.1-1.9,0.2-2.8c0.3-1,0.8-2.4,1.5-2.7c1.3-0.4,2.9-0.1,4.3-0.1
    c0.1,0,0.4,0.6,0.3,0.8c-0.2,0.4-0.7,1.1-0.8,1c-1.6-0.6-1.6,0.8-2.1,1.6c-0.4,0.6-0.9,1-1.4,1.5c0.9,1.6,2,3.5,3.1,5.4
    c0.2,0.3,0.6,0.5,0.9,0.8c0.6,0.4,1.3,0.7,1.7,1.2c0.5,0.9,0.9,1.9,1.2,2.9c0.2,0.6,0.3,1.6,0,1.8c-0.7,0.4-1.7,0.7-2.4,0.5
    c-1-0.3-1.8-0.7-1.8,0.9C21.3,153.6,19.6,151.7,18.8,149.5z M159.7,105.6c0.1-0.9,0.2-1.9,0.3-2.8c-0.3,0.1-0.5,0.1-0.5,0.1
    c-0.8,3-1.1,3.2-3.7,1.2c-0.8-0.6-2.5-0.4-2.3-2.1c0-0.4,0.1-0.9,0.3-1.1c0.2-0.2,0.8,0,1.1,0.1c0.6,0.3,1.1,0.7,1.7,0.9
    c0.3,0.1,0.7,0.1,1.1,0.1c-0.1-0.4-0.1-0.7-0.2-1.1c-0.1-0.5-0.1-1.1-0.2-1.6c0.5,0.2,1.2,0.4,1.6,0.8c0.6,0.6,1.1,1.3,1.7,2
    c1.4,1.6,2.1,7.1,0.8,8.8c-0.4,0.5-1.6,0.4-2.6,0.6c0.2,0.2,0.6,0.7,0.9,1.2c0.2,0.3,0.1,0.6,0.1,1c-0.3,0-0.7,0.1-1,0
    c-0.7-0.3-1.3-0.7-1.9-1.3c0.4,0.1,0.9,0.2,1.4,0.3c-0.8-2.5-3.2-2.1-4.8-2.9c-2.2-1-3.1-3.7-1.6-5.6c0.1-0.1,0.4-0.3,0.6-0.2
    c1.3,0.1,3.1,2.7,2.7,4c-0.4-0.7-0.8-1.4-1.3-2c-0.2-0.3-0.7-0.6-1-0.5c-0.3,0.1-0.6,0.6-0.7,0.9c-0.4,1.5,0.2,2.5,1.6,2.8
    c0.8,0.2,2.8-1.2,2.7-2c-0.1-0.8-0.9-1.5-1.3-2C156.6,105.2,158.2,105.4,159.7,105.6z M163.5,49.7c1.7,0.7,0.8,2.1,0.1,3
    c-2,3-2.7,6.6-4.1,9.8c-0.6,1.4-1.5,2.7-2.4,4c-0.4,0.6-1.1,1-1.5-0.2c-0.2-0.8-0.9-1.4-1.2-2.1c-0.8-2.2,1.3-3.4,2-5.1
    c0.3-0.7,0.7-1.5,1.1-2.2c0.5-0.9,1-1.7,1.5-2.6c0.1-0.2,0.4-0.6,0.3-0.7c-1.1-1.5,0.4-2.6,0.6-4c0.1-0.8,0.5-1.7,1-2.4
    c0.4-0.5,1.1-0.9,1.7-1.3c0.1-0.1,0.4,0,0.5,0.1c0.1,0.2,0.1,0.4,0.2,0.6l-1,2.2c-1.3,0.2-1.7,1.1-1.4,2.2
    C161.8,50.7,163,49.5,163.5,49.7z M154.4,66.7c0.4,0.3,1,0.7,1,1c0,0.6-0.1,1.6-0.5,1.8c-1.9,0.9-3.8,1.6-5.8,2.3
    c-0.8,0.3-1.7,0.2-2.4,0.6c-1.3,0.7-2.6,0.3-3-0.5c-0.6-1-0.4-2.4-0.5-3.7c0,0,0.4-0.1,0.6-0.1c1.1,0,0.7-0.4,0.4-1
    c-0.4-0.7-0.9-1.5-1.1-2.3c-0.2-1.1,0.6-1.3,1.2-0.7c0.8,1,1.9,1.1,2.9,1.1c1.8-0.2,3.4,1.3,5.2,0.8c0.2,0,0.6,0.5,0.8,0.9
    c0.2,0.4,0.2,1,0.3,1.8C153.9,67.8,154.1,67.2,154.4,66.7z M22.4,163.8c0,0.1,0,0.2,0.1,0.3c-1,0.5-1.9,1.1-3.4,1.9
    c0.5-0.9,0.7-1.3,1-1.8c-0.2,0-0.4-0.1-0.5-0.1c-1.9,1.1-3.7,2.2-5.5,3.3c-0.2,0.1-0.4,0.4-0.6,0.4c-0.8,0-1.7,0-2.5-0.1
    c0.5-0.5,1-1.1,1.6-1.6c2.8-2,5.3-4.6,8.9-5.6c0.7-0.2,1.2-1.4,1.5-2.3c0.6-1.6,2.1-2.5,3.4-1.9c0.3,0.1,0.7,0.5,0.7,0.7
    c-0.2,1.3-0.2,2.6-0.8,3.7c-0.4,0.8-1.5,1.2-2.4,1.7c-0.9,0.5-1.8,0.8-2.7,1.3c0.1,0.1,0.1,0.2,0.2,0.3
    C21.6,163.9,22,163.9,22.4,163.8z M160.1,97c-1.5-0.7-1.8-3.7-0.8-5.2c0.2-0.2,0.5-0.4,0.6-0.6c0.9-1.8,1.3-1.8,2.7-0.4
    c0.5,0.5,1.2,0.9,1.7,1.5c0.9,0.9,1.5,1.4,1.1-0.5c0.4,0,0.9-0.3,1.1-0.1c1.4,1.2,0.8,2.8,0.5,4.2c-0.2,1.2-1.3,1.6-2.5,1.5
    c-0.5,0-0.9,0-1.4,0.1c0,0.1,0,0.1,0,0.2C162.1,97.4,161,97.4,160.1,97z M47.6,137.8c-1.2-1.6-2.1-3.4-3.2-4.9
    c-0.8-1.1-1.9-1.9-2.8-2.8c-0.4-0.4-0.7-1-0.8-1.5c0-0.5,0.2-1.4,0.6-1.6c0.5-0.2,1.4,0.1,1.7,0.5c0.7,0.8,1.5,1.8,1.5,2.7
    c-0.2,2.3,1.2,3.9,2.7,5c1.8,1.3,4.1,1.9,6.1,2.8c0.2,0.1,0.5,0.1,0.9,0.1C51.5,140.7,49.7,140.6,47.6,137.8z M171.1,78.1
    c-0.7,1.6-1.9,2.1-3.3,1.5c-1.1-0.4-2.2-2.5-1.8-3.6c0.6-1.7,3.5-3.5,5.3-3c0.4,0.1,0.7,0.9,1,1.3C171.8,75.7,171.5,76.9,171.1,78.1
    z M79.6,166.2c-1.4,2.1-2.5,4.5-2.5,7.2c0,0.4-0.5,0.8-0.8,1.2c-0.3-0.4-0.6-0.8-0.7-1.2c-0.8-2.9,0.3-5.4,2-7.5
    c3-3.7,4.9-7.6,4.7-12.4C83.3,158.1,82.2,162.3,79.6,166.2z M191.6,119.8c0.2,0.3,0.4,0.5,0.7,0.8c1.7,1.8,1.7,1.8-0.8,2.6
    c-0.9,0.3-2,0.4-2.9,0.2c-0.9-0.1-2.3-0.3-1.1-1.9c0.1-0.2,0.1-0.8-0.1-0.9c-1.1-0.5-2.2-0.9-3.4-1.4
    C186.1,117.5,189.7,117.7,191.6,119.8z M177.8,132.1c1.7,0.9,2.2,2.2,1.2,3.8c-0.7,1-0.7,1.4,0.7,1.4c0.8,0,1.6,0.5,2.3,0.9
    c0.3,0.2,0.2,0.8,0.3,1.2c-0.4-0.1-0.9,0-1.1-0.3c-0.9-1-1.9-1.1-2.9-0.2c-1.4,1.2-2.4,0.4-3.5-0.4c-0.2-0.1-0.1-1.1,0-1.1
    c1.4-0.5,1-1.7,1.4-2.6c0.5-1.2,0.4-2.1-0.3-3c-0.1-0.1,0-0.3,0.1-0.5C176.6,131.5,177.2,131.8,177.8,132.1z M168.9,44.5
    c0.5,0,1,0,2-0.1c-1-0.5-1.6-0.8-2.2-1.1c-0.3-0.2-0.6-0.5-0.9-0.7c0,0,0.2-0.4,0.2-0.4c0.4,0,0.9,0,1.2,0.3c0.7,0.4,1.3,1,1.9,1.5
    c0.3,0.2,0.8,0,1,0.2c0.3,0.2,0.6,0.6,0.7,1c0,0.1-0.4,0.5-0.7,0.5c-0.5,0.1-0.9,0-1.4,0c0.4,0.3,0.7,0.7,1.1,1
    c0.6,0.6,1.2,1.2,1.9,1.8c-0.1,0.1-0.2,0.2-0.3,0.3c-0.8-0.5-1.6-1-2.6-1.6c0,0.5,0,0.6,0,0.7c0.5,0.7,1.1,1.3,1.6,2
    c-1.3-0.4-3-0.4-3.7-1.3c-1.2-1.4-2.1-1.3-3.4-0.6c-0.2,0.1-0.6,0-0.6,0c-0.2-0.7-0.3-1.4-0.5-2.1c0.3,0,0.6,0,0.9,0.1
    c0.2,0,0.3,0.2,0.5,0.2c1.3,0.1,2.6,0.2,3.8,0.3C169.3,46.1,169.1,45.3,168.9,44.5z M180.9,152.1c-0.2,0.3-0.5,0.6-0.7,0.9
    c-0.2,0.2-0.2,0.5-0.4,0.7c-0.9,1.2-1.6,2.5-2.6,3.7c-0.9,1-2,1.9-2.9-0.1c-0.3-0.7-2.2-0.4-1.6-1.7c0.2-0.5,1.5-0.4,2.2-0.7
    c0.7-0.3,1.2-1,1.8-1.4c0.9-0.7,1.9-1.3,2.9-2C180.2,151.7,180.5,151.9,180.9,152.1z M122.6,51.2c1.2,1.8,0.9,2.8-1,3.7
    c-0.7,0.3-1.3,1-1.9,1.5c-0.3,0.3-0.6,0.8-1,1c-0.7,0.3-1.4,0.3-2.2,0.4c-0.1-0.9-0.4-1.9-0.3-2.7c0-0.4,1-0.8,1.6-0.9
    c2.7-0.3,4.1-1.9,3.4-4.4c-0.4-1.5,0.5-1.6,2.1-1.8C121,49,121.9,50.2,122.6,51.2z M179.2,80.8c0,0.2-0.3,0.6-0.4,0.6
    c-2.8-0.5-4.8-3.8-3.8-6.3c0.2-0.4,0.6-0.9,0.8-0.9c0.6,0.1,1.4,0.3,1.8,0.7c0.6,0.8,0.9,1.8,1.3,2.7c-0.1,0.1-0.3,0.1-0.4,0.2
    C178.7,78.8,179,79.8,179.2,80.8z M78.5,170c0.5-1,1-1.9,1.7-2.8c0.3-0.4,0.8-0.9,1.3-1c0.3-0.1,1.1,0.5,1.2,0.8
    c0.1,0.8,0.1,1.7-0.2,2.5c-0.3,0.8-1,1.4-1.7,2c-0.7,0.5-1.5,0.9-2.2,1.3c-0.1,0.1-0.5-0.5-0.8-0.8C78,171,78.2,170.5,78.5,170z
     M174.9,177.9c0.4-0.7,1.3-0.9,2,0.1c0.4,0.5,1,1,1.5,1.4c0.4,0.3,1,0.6,1.1,1c0.2,0.7,0.1,1.4,0.1,2.2c-0.6-0.2-1.2-0.4-1.8-0.7
    c-0.6-0.4-1.1-0.9-1.7-1.3c-0.2-0.2-0.8-0.1-1,0c-0.6,0.3-1.1,0.8-2,1.5C173.8,180.4,174.2,179,174.9,177.9z M148.1,146.3
    c0,0.1,0.5,0.3,0.6,0.2c0.9-0.5,1.6-0.3,2.1,0.6c0.2,0.3,0.4,1,0.2,1.2c-0.2,0.3-1.1,0.5-1.2,0.4c-0.9-1-2.6-0.9-3-2.7
    c-0.5-2.7-2.1-5.2-1.4-8.1C146.2,140.7,147.1,143.5,148.1,146.3z M63.8,65.5c-0.4,0.2-1,0-1.5,0c0.2-0.6,0.1-1.4,0.5-1.7
    c2.3-1.7,4.6-3.3,6.9-5c0.1,0.1,0.2,0.2,0.3,0.3C68.1,61.4,66.6,64,63.8,65.5z M14,150.5c2.3,0.6,3.4,3.9,2.4,6.3
    c-0.1,0.1-0.7,0.2-0.8,0.1c-0.4-0.5-0.6-1-0.9-1.5c-0.6-1.2-0.8-2.8-2.7-2.9c-0.2,0-0.4-0.3-0.4-0.5c0-0.1,0.3-0.3,0.5-0.4
    c1.1-0.4,2-0.3,2.5,0.9c0.2,0.4,0.4,0.9,0.5,1.3c0.2-0.1,0.4-0.2,0.5-0.3C15.1,152.5,14.5,151.5,14,150.5z M86.3,59.3
    c0.3,3.3-2.8,7.7-5.5,7.9C82.6,64.5,84.4,62,86.3,59.3z M30.6,149.4c-0.1,0.1-0.2,0.2-0.3,0.2c0.2,0.3,0.5,0.5,0.6,0.8
    c0.2,0.3,0.2,0.7,0.3,1.1c-0.3,0-0.6-0.1-0.9-0.1c-0.2,0-0.4-0.1-0.5-0.1c-1.5,1.5-1.5-0.3-1.8-0.9c-0.6-1.3,0.6-1.5,1.3-1.7
    c2.3-0.9,4.1,0.5,3.8,3.1C32.2,150.9,31.4,150.1,30.6,149.4z M39.9,130c-1.6-2-3.3-4.1-5.2-6.4C39,124.2,40.3,126.6,39.9,130z
     M141,83c-0.9-0.7-1.3-0.1-2,0.3c-0.4,0.2-1,0-1.6,0c0.2-0.5,0.2-1.1,0.5-1.6c0.1-0.3,0.8-0.4,0.7-0.6c0-0.8,0.2-1.4,1-0.9
    c1,0.5,1.8,1.4,2.7,2.1c0,0.2-0.1,0.4-0.1,0.5C141.8,82.9,141.2,83.2,141,83z M20.7,154.8c0,0.7,1.5,1.6-0.1,2.2
    c-0.1,0-0.6-1.3-0.9-2c-0.8-1.6-1.6-3.2-2.4-4.8C19.1,150.9,20.6,152.7,20.7,154.8z M142.2,91.1c-1.3-0.2-1.7-1.2-1.4-2.3
    c0.2-0.8,0.8-1.5,1.2-2.2c0.4,0.7,0.8,1.4,1.1,2.2C142.7,89.7,142.4,91.1,142.2,91.1z M156.5,95.5c-0.4,0-1.1-0.8-1-1
    c0.5-1,1.1-2,1.7-3c0.5,0.6,0.9,1.2,1.1,1.4C158.3,94.6,157.9,95.6,156.5,95.5z M166,90.1c-0.5-0.5-1.4-1.1-1.3-1.5
    c0.2-0.8,1-1.5,1.5-2.2c0.5,0.4,1,0.8,2,1.5C167.2,88.9,166.6,89.5,166,90.1z M29.2,118.5c0.4,0.2,0.7,0.5,1.1,0.7
    c-0.4,0.2-0.9,0.3-1.3,0.5c-0.5,0.2-1.1,0.5-1.6,0.7c-0.2,0.1-0.6,0.3-0.7,0.2c-0.6-0.4-1.2-0.9-1.8-1.3c0.6-0.3,1.2-0.6,1.8-0.8
    c0.4-0.1,0.8-0.1,1.2-0.2C28.4,118.4,28.8,118.3,29.2,118.5z M166.7,126.4c-0.7-0.1-1.8-0.8-1.8-1.3c-0.1-1.4,1.3-1.3,2.2-1.4
    c0.4,0,0.9,0.5,1,0.5C168.4,126,167.8,126.6,166.7,126.4z M52,154.9c0.1,0.3-0.3,0.7-0.5,0.9c-0.6,0.5-2.2,0.3-1.5,1.9
    c-0.3,0.1-0.6,0.3-0.8,0.3c-0.3-0.1-0.6-0.4-0.7-0.6c-0.3-0.9,1.6-3.3,2.8-3.3C51.5,154.3,51.9,154.6,52,154.9z M164.8,84.3
    c-0.1,0.1-0.7-0.1-1-0.4c-0.6-0.4-1-0.9-0.1-1.5c0.3-0.2,0.4-0.6,0.6-0.8c0.3-0.4,0.7-0.8,1-1.2c0.3,0.5,0.6,1,1.1,1.7
    C165.8,83,165.3,83.7,164.8,84.3z M85,118.2c-0.7,0.6,0.9,2.3-1,2.1c-0.6-0.1-1.4-0.9-1.7-1.5c-0.1-0.4,0.7-1.1,1.4-2
    C84.4,117.5,84.7,117.9,85,118.2z M15.3,119.6c-0.7,0.9-1.4,1.7-2.1,2.6c-0.1,0.1-0.5,0.2-0.5,0.2c-0.2-0.4-0.7-0.9-0.6-1.1
    c0.9-1.1,1.8-2.2,2.8-3.2c0.2-0.2,0.7,0.1,1.5,0.2C15.9,119,15.6,119.3,15.3,119.6z M190.4,169c0.2,0.6,0.3,1.3,0.3,2
    c0,0.2-0.2,0.4-0.4,0.5c-0.1,0-0.4-0.1-0.5-0.3c-0.8-2.6-1.5-5.3-2.3-7.9c0.1,0,0.3-0.1,0.4-0.1C188.8,165.2,189.6,167.1,190.4,169z
     M144.9,143.2c1.3,2.8,1.9,6,5.2,7.4C147,150.6,144.9,147.1,144.9,143.2z M127.4,86.2c0.2,0,0.7,0.5,0.7,0.6c-0.6,1-1.3,1.9-2,2.9
    c-0.3-0.6-0.6-1.2-0.8-1.5C125.2,86.2,126.5,86.4,127.4,86.2z M24.3,145.6c0.3,0.5,0.3,1,0.5,1.5c-0.5-0.3-1.1-0.5-1.4-0.8
    c-0.6-0.8-1.1-1.6-1.5-2.5c-0.4-1.1,0.1-1.7,1.4-2C22,143.5,23.6,144.4,24.3,145.6z M174.6,149.1c-0.2,0.1-0.9-0.9-0.9-1.1
    c0.5-0.7,1.2-1.3,1.8-1.9c0.4,0.4,0.7,0.8,1.4,1.6C176,148.4,175.3,148.9,174.6,149.1z M189.7,98.1c0.4,0.6,1.2,1.2,1.2,1.8
    c0,0.5-0.8,1-1.3,1.5c-0.4-0.4-0.9-0.9-1.5-1.5C188.8,99.2,189.3,98.6,189.7,98.1z M195.8,85.8c0,0-0.8-0.9-0.7-1
    c0.4-0.7,0.9-1.3,1.5-1.8c0.1-0.1,0.9,0.6,1.7,1.2C197.3,84.9,196.6,85.4,195.8,85.8z M141,100.7c0.1,0.1-0.2,0.9-0.2,0.9
    c-0.6-0.1-1.4,0-1.7-0.4c-0.5-0.5-0.8-1.3-1.2-2c0,0,0.3-0.2,0.6-0.4C139.4,99.4,140.2,100,141,100.7z M125.8,103.8
    c-0.1-0.3,0.4-0.7,0.6-1.1c0.2,0.3,0.6,0.6,0.7,0.9c0.4,1.4,0.6,2.8,0.9,4.1c-0.2,0.1-0.3,0.1-0.5,0.2
    C127,106.6,126.3,105.3,125.8,103.8z M183.8,90.7c-0.2-0.2-0.2-0.6-0.3-0.9c0.3,0,0.6,0,0.8,0c0.1,0,0.1,0,0.2,0.1
    c0.8,0.6,1.6,1.1,2.4,1.7c-0.5,0.6-1,1.1-1.3,1.4C185,92.1,184.4,91.4,183.8,90.7z M180.6,123c-0.5,0.3-1,0.9-1.4,0.8
    c-0.7-0.3-1.4-0.8-2-1.4c-0.1-0.1,0.4-0.6,0.7-1.2C179,121.9,179.8,122.4,180.6,123z M49.1,179.2c-0.8,0.5-1.6,1-2.4,1.6
    c-0.1,0.1-0.2,0.1-0.3,0.2c-0.6,0.2-1.2,0.3-1.8,0.4c0.5-0.3,1-0.6,1.5-1c0.3-0.2,0.6-0.5,0.9-0.8c-0.4-0.2-0.8-0.4-1.1-0.5
    c0.1-0.2,0.1-0.3,0.2-0.5C47,178.7,48.1,178.9,49.1,179.2z M3.3,159.6c0.3-0.8,0.6-1.7,0.9-2.5c0.2,0.2,0.4,0.5,0.6,0.7
    c0.1,0.1,0.2,0.3,0.3,0.3c0.3,0,0.6,0,1,0c-0.7,0.5-0.3,2.3-2.1,1.8C3.7,159.9,3.3,159.7,3.3,159.6z M171.1,159.5
    c0.4,0.4,0.7,0.9,0.9,1.4c0,0.1-0.5,0.6-0.7,0.6c-0.6-0.2-1.3-0.5-1.6-0.9c-0.2-0.4,0-1.1,0.1-1.7
    C170.3,159,170.8,159.2,171.1,159.5z M110.9,74.2c1.5-1.8,3-3.6,4.8-5.8C114.6,71.2,113.7,73.6,110.9,74.2z M118.9,64.2
    c0.3-0.3,0.8-0.3,1.2-0.4c-0.1,0.5,0,1.1-0.2,1.4c-0.9,0.8-1.9,1.4-2.8,2.1c-0.1-0.1-0.3-0.3-0.4-0.4
    C117.4,65.9,118.1,65,118.9,64.2z M53.8,151.3c-0.1,0.2-0.7,0.3-1,0.4c0-0.4-0.2-0.9,0-1.1c0.7-1.1,1.4-2,2.2-3
    c0.2,0.1,0.3,0.2,0.5,0.2C54.9,148.9,54.4,150.1,53.8,151.3z M132.8,113c-0.3-0.3-0.8-0.7-0.7-0.8c0.6-0.7,1.3-1.4,2-2.1
    c0.1-0.1,0.5,0.2,1.1,0.6C134.3,111.6,133.5,112.3,132.8,113z M181.4,122c-0.7-0.6-1.3-1.2-2-1.8c0.5-0.3,1-0.9,1.5-0.8
    c0.5,0,0.9,0.7,1.4,1.1C181.8,121.2,181.6,121.6,181.4,122z M87.5,112.3c0.3-0.1,0.6,0.2,0.9,0.3c-0.2,0.3-0.2,0.7-0.5,0.8
    c-0.4,0.2-0.9,0.4-1.3,0.4c-1,0-2.1-0.2-3.1-0.3c-0.1-0.1-0.1-0.2-0.2-0.2C84.7,112.9,86.1,112.5,87.5,112.3z M171.3,58.3
    c0.5-0.7,1.2-1.3,1.9-1.8c0.1-0.1,0.6,0.3,1,0.5c-0.6,0.8-1.2,1.6-2.1,2.8C171.6,58.9,171.2,58.4,171.3,58.3z M154.1,91.2
    c0.2-0.2,0.6-0.3,0.9-0.4c0.1,0.5,0.4,1.1,0.2,1.5c-0.2,0.7-0.6,1.4-0.9,2.1c-0.2-0.6-0.5-1.2-0.7-1.8
    C153.7,92.1,153.8,91.6,154.1,91.2z M80.3,117.2c-0.1,0.1-0.6-0.3-0.8-0.5c0.7-0.6,1.4-1.2,2.2-1.8c0.1,0,0.3,0.2,1,0.7
    C81.7,116.2,81,116.8,80.3,117.2z M123.1,90.3c-0.8-2.5-0.7-3,1.4-5C124,87.2,123.6,88.8,123.1,90.3z M130.7,104.1
    c-0.3-0.6-0.7-1.3-0.8-2c0-0.2,0.7-0.8,0.7-0.8c0.5,0.3,0.9,0.7,1.4,1.2C131.5,103.2,131.1,103.6,130.7,104.1z M7,146.6
    c-0.2,0-0.6-0.4-0.8-0.6c0.7-0.4,1.3-0.9,2-1c0.4-0.1,0.9,0.5,1.8,0.9C8.7,146.2,7.9,146.5,7,146.6z M192.7,171.8
    c0.5,0.2,1,0.5,1.5,0.8c-0.4,0.4-0.9,1-1.3,1.1c-0.4,0-0.8-0.7-1.2-1c0-0.2,0.1-0.4,0.1-0.6C192.1,171.9,192.5,171.7,192.7,171.8z
     M170.4,130.9c-0.1-0.2-0.4-0.6-0.3-0.7c0.7-0.6,1.4-1.2,2.2-1.8c0.2-0.1,0.6,0.1,0.9,0.1c0.1,0.2,0.1,0.4,0.2,0.7
    C172.3,129.7,171.4,130.3,170.4,130.9z M109.5,72.5c0,0-0.6-0.1-0.6-0.1c0-0.5,0-1,0.2-1.5c0.6-1.2,1.2-2.3,1.8-3.4
    c0.1,0,0.3,0.1,0.4,0.1C110.7,69.2,110.1,70.8,109.5,72.5z M119.8,108.4c-0.5-0.6-1.1-1.2-1.4-1.9c-0.1-0.1,0.5-0.6,0.8-0.9
    c0.4,0.7,0.9,1.5,1.4,2.3C120.2,108.2,119.9,108.5,119.8,108.4z M156.1,99.3c-0.2,0.2-0.6,0.6-0.6,0.6c-0.9-0.6-1.7-1.2-2.5-1.8
    c0.2-0.2,0.4-0.3,0.9-0.7C154.6,98.1,155.3,98.7,156.1,99.3z M85,164.8c0,0.1-0.4,0.5-0.5,0.5c-0.7-0.4-1.3-0.8-1.9-1.3
    c0,0,0.4-0.7,0.9-1.4C84.2,163.6,84.6,164.2,85,164.8z M195.8,32.2c0.2,0,0.4,0,0.5,0.1c-0.3,1.5-0.7,3-1,4.6
    C193.4,35.1,195.6,33.8,195.8,32.2z M166.9,53.3c-0.3-0.1-0.9-0.3-0.9-0.4c0.1-1.1,0.4-2.1,0.6-3.2c0.2,0.1,0.5,0.2,0.6,0.4
    c0.1,0.4,0.1,0.9,0.2,1.7C167.2,52.1,167,52.7,166.9,53.3z M80.5,192.7c0-0.3,0.5-0.6,0.8-0.8c0.1,0.3,0.4,0.7,0.3,1
    c-0.1,1.1-0.3,2.2-0.5,3.3c-0.2,0-0.5,0-0.7-0.1C80.5,195,80.4,193.9,80.5,192.7z M158,48.1c-0.2-0.4-0.7-1-0.6-1.3
    c0.2-0.6,0.8-1,1.2-1.5c0.2,0.3,0.4,0.5,0.7,1C158.8,47,158.4,47.6,158,48.1z M162.1,44.7c-0.3,0.4-0.9,0.5-1.4,0.8
    c0.2-0.5,0.2-1.2,0.6-1.6c0.7-0.8,1.6-1.4,2.4-2c0.1,0,0.1,0.1,0.2,0.1C163.2,42.9,162.7,43.9,162.1,44.7z M164.9,142.8
    c0.1,0.2,0,0.6,0,1c-0.3-0.1-0.7-0.2-0.8-0.4c-0.5-0.9-1-1.9-1.4-2.9c0.2-0.1,0.4-0.1,0.6-0.2C163.8,141.1,164.4,141.9,164.9,142.8z
     M171.7,137.2c-0.1,0.4-0.6,0.8-0.9,1.2c-0.3-0.5-0.6-0.9-0.7-1.4c-0.1-0.3,0.2-0.7,0.4-1c0.2,0,0.4,0,0.6,0
    C171.3,136.4,171.8,136.9,171.7,137.2z M117.8,46.4c1.3,0,2.4,0,3.6,0c0,0.2,0,0.3,0,0.5C120.3,46.5,118.9,49,117.8,46.4z
     M165.8,152.1c-0.3-0.1-0.5-0.5-0.8-0.8c0.4-0.1,1-0.5,1.2-0.3c0.9,0.6,1.8,1.3,2.6,2c-0.1,0-0.2,0.1-0.3,0.1
    C167.6,152.8,166.7,152.5,165.8,152.1z M173.8,136.6c-0.1,0.2-0.6,0.1-1,0.2c0.1-0.2,0.2-0.5,0.2-0.7c0.1-0.3,0.3-0.6,0.2-0.9
    c-0.1-0.4-0.2-0.9-0.4-1.3c0.2,0,0.6-0.2,0.6-0.1c0.3,0.4,0.5,0.8,0.8,1.3C174.2,135.6,174.1,136.2,173.8,136.6z M5.1,125.3
    c-0.2-0.1-0.3-0.9-0.2-0.9c0.4-0.2,0.9-0.2,1.3-0.3c0,0.3-0.1,0.6,0,0.8c0.3,0.4,0.6,0.8,0.9,1.3c-0.1,0.1-0.1,0.2-0.2,0.3
    C6.4,126.1,5.7,125.7,5.1,125.3z M179.2,187.6c-0.7-0.5-1.3-0.9-2-1.4c0,0,0.2-0.4,0.2-0.4c0.9,0.4,1.8,0.8,2.7,1.2
    c0.1,0,0.1,0.4,0.1,0.5c-0.1,0.1-0.4,0.2-0.5,0.2C179.4,187.7,179.3,187.7,179.2,187.6z M60.2,80.9c0.3-1.9,0.1-3.9,2.2-5.1
    C61.7,77.6,60.9,79.2,60.2,80.9z M53.1,109.2c1.8,0,2.2,1.1,2.5,2.4c-0.1,0.1-0.2,0.2-0.4,0.3C54.5,111,53.8,110.1,53.1,109.2z
     M185.6,167c-0.3-0.7-0.6-1.5-0.8-2.2c-0.1-0.2,0.2-0.5,0.3-0.8c0.4,0.6,0.8,1.2,1.2,1.8C186,166.3,185.8,166.7,185.6,167z
     M163.1,100.5c0,0.3-0.5,0.6-0.8,0.9c-0.4-0.4-0.9-0.7-1.2-1.1c-0.1-0.1,0.3-0.6,0.5-0.9c0.3-0.2,0.5-0.3,0.8-0.5
    C162.7,99.4,163,99.9,163.1,100.5z M158.1,89.2c0.1,0.1-0.5,0.6-0.8,0.9c-0.2-0.3-0.3-0.5-0.4-0.8c-0.2-0.6-0.4-1.1-0.7-1.7
    c0.1-0.1,0.1-0.2,0.2-0.3C157,88,157.6,88.6,158.1,89.2z M13.2,156.9c-0.6-0.2-1.1-0.5-1.7-0.8c0.2-0.3,0.6-0.8,0.7-0.8
    c0.6,0.3,1.1,0.6,1.9,1.2C13.6,156.8,13.3,157,13.2,156.9z M114.7,138.6c-0.2,0.1-0.6-0.1-0.8-0.3c-0.2-0.2-0.3-0.5-0.5-0.8
    c0.3,0,0.6-0.1,0.8-0.1c0.7,0,1.4,0,2.4,0C115.7,138,115.2,138.4,114.7,138.6z M6.1,161.3c-0.2,0.1-0.5-0.3-0.7-0.5
    c0.5-0.4,1-0.9,1.5-1.3c0,0,0.4,0.4,0.9,0.9C7.1,160.8,6.6,161.1,6.1,161.3z M3.4,156.1c-0.2,0.5-0.6,0.9-0.9,1.3
    C2.4,157,2,156.6,2,156.2c0-0.4,0.4-0.7,0.7-1.4C3.1,155.5,3.5,155.8,3.4,156.1z M165.6,98.8c0,0,0,0.2,0,0.3c-0.8,0-1.6,0-2.4-0.2
    c-0.4-0.1-0.7-0.4-1-0.5c0.3-0.2,0.7-0.3,1.1-0.5C164.1,98.2,164.8,98.5,165.6,98.8z M178,129c-0.3,0.2-0.7,0.6-0.9,0.5
    c-0.4-0.2-0.8-0.5-1-0.9c-0.1-0.1,0.4-0.5,0.7-1C177.3,128.2,177.7,128.6,178,129z M140.9,120.2c-0.4,0.4-0.8,0.8-1.3,1.2
    c-0.1,0-0.8-0.5-0.7-0.6c0.1-0.5,0.5-1,0.7-1.5C140.4,119.9,140.6,120,140.9,120.2z M160,42.7c0.5-0.8,1-1.5,1.5-2.2
    c0.2,0.2,0.5,0.5,0.5,0.5c-0.5,0.8-1,1.5-1.7,2.5C160.1,43,159.9,42.8,160,42.7z M139.1,39.7c-0.1,0.1-0.4,0.2-0.6,0.3
    c0-0.2-0.1-0.5-0.1-0.6c0.5-0.8,1.1-1.6,1.6-2.4c0.2,0.1,0.3,0.2,0.5,0.4C140.1,38.1,139.6,38.9,139.1,39.7z M30.7,67.4
    c1.4,0.9,2.5,1.9,0.6,3.6c1.8-0.9,3-0.3,4.3,0.7c2.5,2,4.2,0.7,5.7-1.1c0.4-0.5,0.6-1,0.9-1.5c3.1-5.2,2.2-10.7,1.3-16.2
    c-0.3-1.9-1.4-3.1-3.3-3.8c-0.5-0.2-0.6-1.2-0.9-1.8c1.2-0.2,2.4-0.6,3.6-0.5c0.5,0,1.2,1.1,1.4,1.7c0.4,1.7,0.7,3.5,0.7,5.2
    c0.3,7.5,0.5,15.1,0.7,22.6c0.1-0.9,0.3-1.9,0.3-2.8c-0.2-7.1-0.4-14.2-0.6-21.3c0-1.4,0.2-2.8,0.1-4.1c0-1.1,0-2.3-0.4-3.2
    c-0.2-0.5-1.4-0.5-2.2-0.8c-0.1,0-0.2-0.1-0.3-0.2c-2-1.4-4-2.7-5.9-4.1c-0.1,0.1-0.2,0.2-0.3,0.3c0.9,0.8,1.6,1.7,2.6,2.4
    c1.4,1,1.4,3.3-0.2,3.8c-1.2,0.4-2.9,0.5-4-0.1c-1.6-0.8-3.2-2.1-4.3-3.6c-1-1.3-1.6-3.1-1.7-4.8c-0.2-2.6,1.2-4.7,3.1-6.4
    c0.5-0.4,1-0.9,1.6-1.3c0.1,0.7,0.1,1.4,0.2,2.1c0.2,0.9-1.1,2,0.4,2.8c0.4,0.2,0.9,0.5,1.3,0.7c0.2-0.5,0.4-1,0.7-1.4
    c0.3,0.2,0.8,0.5,1.3,0.9l0,0c-0.3-0.7-0.6-1.6-1-2.2c-1.3-2-1.1-3.9,0.1-5.8c0.7-1.1,1.7-2,2.7-2.8c2.4-2,4.9-3.9,7.2-5.7
    c-4.6,1.4-8.9,3.5-11.2,8.2c0.5-1.7,0.1-3.7,1.9-4.7c0.2-0.1,0.3-0.4,0.3-0.6c0.2-1.6,1.5-1.9,2.8-2.3c1.1-0.3,2.3-0.6,3.3-1.1
    c2-1.1,4-2.3,6-3.4c2.7-1.6,5.4-3.2,8.1-4.7C59.7,9,62,7.8,64.5,6.8c2.8-1.1,5.7-2.4,8.7-2.7c3.3-0.3,5.1-2,6.8-4.2
    c-8.6,0-17.1,0-25.7,0c0.3,0.7,0.7,1.4-0.1,2.1c-1.3,1.1-2.4,2.3-3.6,3.5c-0.3,0.3-0.6,0.4-1,0.7c-0.8,1-1.5,2.1-2.4,2.8
    c-1.6,1.2-3.3,2.4-5.1,3.2c-1.8,0.8-3.7,1.1-5.4,1.5c0.7-0.8,1.6-1.8,2.4-2.8c0,1.4,1,1.5,2.1,0.9c2.3-1.3,4.6-2.8,6.8-4.2
    c0.6-0.4,1.1-0.9,1.6-1.4c-0.4,0-0.8,0-1.1,0.2C46.2,8,43.9,9.5,41.5,11c-0.3,0.2-1.3,0-1.4-0.2c-1.3-2.7-2.6-5.5-3.8-8.3
    C36,1.8,35.9,0.9,35.7,0c-2.1,0-4.3,0-6.4,0c1.5,3.4,3,6.9,4.4,10.3c0.5,1.3,0.7,2.7-0.5,3.9c-0.2,0.2-0.3,0.5-0.5,0.7
    c0.4,0.1,0.8,0.3,1.2,0.3c1.6-0.2,3.3-0.6,4.9-0.8c0.3,0,0.5,0,0.9,0.5c-1.3,0.5-2.7,1.1-4,1.5c-3.7,1-7.5,2-10.9,2.9
    c0.1-0.2,0.6-0.7,1.1-1.3c-0.1-0.1-0.2-0.2-0.3-0.4c-1.8,1.5-3.6,3.1-5.4,4.6c-1.5,1.3-2.9,2.6-4.5,3.7c-3.6,2.6-6.5,5.8-8.9,9.4
    c-1.3,1.8-1.1,4-0.5,6.1c0.7,2.2,1.5,4.3,2,6.6c-0.5-0.7-1.1-1.4-1.6-2.1c-0.1,0.1-0.2,0.2-0.4,0.3c1.1,1.3,2.2,2.7,3.5,3.8
    c1.2,1.1,2.6,2,3.9,3c0.4,0.4,0.8,1.1,0.8,1.6c0,0.2-0.9,0.6-1.4,0.7c-2,0.6-3.5-0.2-4.7-1.7c-1.3-1.5-2.6-3-3.7-4.7
    C2,45.5,1.4,41.6,2.2,37.4c0.1-0.3,0.1-0.5-0.1-0.9c-0.4,1.1-0.8,2.2-1.1,3.3c-0.3,1-0.6,0.5-1,0.2c0,11.9,0,23.8,0,35.7
    c2,0.4,4,1,6.1,1.3c2.7,0.4,4.8-0.8,6-3.1c0.5-1,0.9-2.1,1.3-3.2c0.8-2.2,1.6-4.5,2.3-6.8c0.1,0,0.1,0,0.2,0.1
    c0,0.8,0.1,1.6,0.1,2.4c0.1,0,0.2,0,0.3,0c0.2-0.7,0.4-1.4,0.8-2.4c0.3,0.6,0.3,0.9,0.5,1.1c0.2,0.3,0.4,0.5,0.6,0.8
    c0.1-0.3,0.3-0.7,0.3-1c0.1-0.5,0.2-0.9,0.3-1.4c0.5,0.2,1.2,0.3,1.4,0.7c0.9,1.4,2.2,1.6,3.7,1.5c-0.3-0.3-0.7-0.6-1.1-0.7
    c-2.1-0.6-4.4-3.5-4.3-5.7c0-0.5,0.4-1.1,0.5-1.6c0.5,0.2,1.1,0.3,1.6,0.6c1.2,0.8,2.3,1.6,3.3,2.6c2.2,2.1,4.3,4.3,6.5,6.4
    C30.6,67.3,30.7,67.4,30.7,67.4z M10.4,45c-1-2.1-1.5-3.9-2.6-5.2c-1.3-1.6-1.3-3.3-0.3-4.7c1.7-2.3,3.6-4.5,5.8-6.2
    c3-2.4,6.6-4.1,9.5-6.7c2.4-2.1,4.9-3.6,7.9-4.4c0.8-0.2,1.7-0.2,2.6-0.3c-0.2,1.2,0,2.6-0.6,3.6c-1.4,2.3-3.2,4.3-4.7,6.5
    c-1,1.4-1.8,3-2.6,4.6c-0.2,0.4-0.1,0.9-0.1,1.6c0.4-0.6,0.6-1,0.9-1.4c0.1,0.5,0.4,1,0.3,1.4c-0.2,0.9-0.8,1.8-1,2.7
    c-0.2,1.4-0.1,2.8-0.4,4.2c-0.3,1.4-0.8,2.7-1.3,4c-0.1,0-0.3-0.1-0.4-0.1c0.4-3,0.8-6.1,1.2-9.1c-0.1,0-0.1-0.1-0.2-0.1
    c-0.3,1.1-0.8,2.3-1,3.4c-0.5,2.2-0.9,4.3-1.3,6.5c-0.3,1.5-0.9,1-1.5,0.3c-0.3-0.3-0.4-0.8-0.8-0.9c-0.4-0.1-0.8,0.1-1.3,0.2
    c0.1,0.3,0.1,0.5,0.3,0.8c0.5,1,1,2,1.4,3c0,0-0.2,0.2-0.3,0.3c-0.9,0.3-1,0.6,0,0.9c0.9,0.2,1.7,0.5,1.7,1.7c0,1.5-1.3,3.6-2.8,3.9
    c-0.7,0.1-1.8-0.2-2.2-0.7c-1.9-2.2-3.7-4.5-5.4-6.9c-0.8-1.1-1.3-2.4-1.9-3.6c0-0.1,0.1-0.1,0.1-0.2C9.5,44.3,9.7,44.5,10.4,45z
     M30.5,52.5c-3.6-0.9-3.8-1.1-4-4.8c-0.1-1-0.1-2.1-0.1-3.1c0-0.9,0.2-1.7,0.3-3.2c0.6,2.8,2.8,3,4.5,3.9c3.5,2,7.1,3.9,10.6,5.9
    c1.3,0.8,1.5,1.8,0.6,3.1c-1.3,1.9-1.3,1.8,0.6,3.2c0.3,0.2,0.7,0.8,0.7,1.1c-0.2,2.2,0.6,4.6-0.9,6.7c-0.9,1.4-1.3,3.1-1.9,4.7
    c-0.5,1.3-1.4,1.6-2.5,1c-3.4-1.9-6.9-3.8-8.8-7.4c-0.5-0.9-0.6-2.1-0.4-3.1c0.4-1.5,0.7-2.9,0.1-4.4c-0.6-1.4,0.3-2.4,1.9-2.3
    c0.6,0,1.3,0.2,1.9,0.3c0.1-0.1,0.1-0.3,0.2-0.4C32.3,53.3,31.4,52.7,30.5,52.5z M27.3,31.5c1.3-2.4,2.5-4.9,4-7.2
    c0.2-0.4,1.5-0.4,2.2-0.2c0.4,0.1,0.8,1,0.7,1.6C34,27,33.4,28.3,32,29.1c-1.3,0.8-2.4,2-3.6,3c-0.2,0.2-0.6,0.3-0.9,0.4
    c-0.1-0.3-0.3-0.6-0.3-0.7C27.3,31.6,27.2,31.5,27.3,31.5z M4.9,50.8c0.8,2.7,3,3.9,5.2,5.2c1.1,0.7,2.1,1.3,3.1,2.1
    c0.2,0.1,0.2,0.6,0.2,0.9c-0.3,0-0.7,0.1-0.9,0c-3.6-2.1-7.2-4.3-9.7-7.7c-0.3-0.3-0.4-1-0.3-1.3c0.1-0.4,0.7-0.6,1.1-1
    C4,49.6,4.7,50.2,4.9,50.8z M36.7,21.2c-0.7,0.5-1.4,1.2-2.1,1.6c-0.2,0.1-0.8-0.4-1.2-0.7c0.8-0.6,1.6-1.1,2.5-1.9
    C36.3,20.7,36.5,21,36.7,21.2z M173.9,0c0,0.4,0.1,0.8,0.1,1.2c0,0.4-0.1,0.7-0.1,1.1c-0.6-0.1-1.2-0.1-1.7-0.3
    c-0.4-0.2-0.7-0.6-1.1-0.8c-0.3,0.6-1,1.3-0.9,1.9c0.2,1.8-0.8,1.8-2.1,1.8c-2,0.1-4.1,0.3-6.1,0.5c-0.1,0-0.3,0.1-0.4,0.3
    c-0.1,0.1,0,0.4,0.1,0.5c1.1,0.6,2.2,1.2,3.2,1.8l0,0c-0.2,0.4-0.3,1-0.6,1.2c-0.5,0.3-1.2,0.2-1.8,0.3c0-0.4,0-0.8,0-1.2
    c-0.1-0.4-0.2-0.8-0.5-1c-1.2-0.9-2-1.7-0.9-3.2c0.5-0.6,0.4-1.6,0.6-2.4c-0.9-0.1-1.8-0.2-2.7-0.2c-0.4,0-0.8,0.2-1.2,0.2
    c-2.8,0-5.6,0-8.4,0c-0.4,0-1.7-0.4-0.6,0.8c0,0-0.2,0.5-0.4,0.5c-0.3,0-0.6,0-0.8-0.2c-1.9-1.9-4.1-1.9-6.5-1
    c-0.6,0.2-1.4-0.1-1.9,0.2c-0.7,0.4-1.6,1-1.6,1.6c0,0.5,0.9,1.2,1.5,1.7c0.5,0.4,1.2,0.5,1.8,0.7c2.7,1.1,5.5,2.1,8.2,3.3
    c1,0.5,1.4,0.3,1.5-0.7c0.1-1.1,0.7-1.4,1.7-1.3c0.2,0,0.5,0.1,0.7,0c3.5-1.4,5.1,1.1,6.7,3.7c-0.9-0.3-1.7-0.5-2.6-0.8
    c-1.4-0.5-2.7-1.4-4-1.5c-2.2-0.2-3,1-2.3,3.1c0.1,0.3,0.2,0.5,0.2,0.9c-3-3.9-7.2-5.4-11.8-6.6c-3.3-0.9-5.9-3.1-7.8-5.9
    c0.6,0.5,1.2,1.5,1.9,1.7c0.9,0.2,1.5,0,1.9-0.3s0.8-0.8,0.8-1.4C148.7,0,161.3,0,173.9,0z M21.5,5.1c2.7,1.8,3.4,5.8,2,9.2
    c-0.8-2.6,0.4-5.5-1.3-7.9c0,3.5,0.7,7.1-2,10.1c-0.1-0.5,0.1-1.1,0-1.5c-0.1-0.6-0.6-1-0.9-1.5c-0.4,0.4-1,0.6-1.2,1.1
    c-0.4,1-0.5,2.2-0.9,3.2c-0.1,0.4-1.1,0.9-1.1,0.8c-0.9-0.9-2.3-1.9-2.3-2.9c0-2.6-1.4-4.3-2.9-6.1c0.5,1.2,1.2,2.4,1.7,3.6
    c0.2,0.5,0.4,1.4,0.1,1.8c-0.3,0.4-1.1,0.6-1.7,0.5c-2.5-0.3-5-0.6-7.5-1c-1.4-0.2-2.9,0.8-2.5,2.1c0.4,1.4-0.2,3.4,2.1,3.9
    c0.4,0.1,1,1.1,0.9,1.4c-0.2,0.5-0.9,1-1.5,1.2c-0.7,0.2-1.5,0.1-2.3,0.2c0,0.4,0,0.7,0,1.1C0.5,24,1.1,24,1.6,23.8
    c0.9-0.3,2.1-0.6,2.6-1.2C4.7,22,4.6,20.9,4.8,20c0.6,0.7,1.1,1.4,1.8,2c0.3,0.3,0.9,0.2,1.4,0.3c-0.2-0.3-0.4-0.7-0.6-1
    c-0.8-1-1.6-2.1-2.5-3.1c-1.2-1.3-0.2-1.6,0.9-1.7c0.9-0.1,1.9,0.1,2.8,0.1c0-0.1,0-0.1,0-0.2c-0.5-0.1-1-0.3-1.5-0.4
    c3.1-0.8,3.8,1.6,4.6,3.7c0.1-0.1,0.2-0.2,0.4-0.3c-0.1-1-0.3-2-0.4-3.3c0.7,0.6,1.1,1.4,1.7,1.5c2,0.5,2.3,1.5,1.1,3.4
    c2-0.9,4-1.4,5.3-2.5c2-1.7,4.1-3,6.6-3.7c1.6-0.5,2.1-1.6,1.7-3c-0.5-1.8-1-3.8-2-5.4c-1.5-2.3-3.5-4.4-5.3-6.5c-1.7,0-3.3,0-5,0
    c0.2,0.5,0.3,1.1,0.7,1.5c1.9,1.7,3.8,3.4,5.8,5.1C22,6.2,21.8,5.8,21.5,5.1z M27,12c0,0.4-0.2,1-0.5,1.3c-0.4,0.4-1,0.6-1.5,0.9
    c0-0.5-0.1-1,0-1.4c0.7-2.9-0.5-5.4-2.1-7.7c-0.8-1.1-1.7-2.1-2.9-3.5C23.9,3.3,27.2,8.5,27,12z M19,187.4c-2,0.1-3.9,0.2-5.9,0.3
    c-0.8,0-1.6,0.2-2.3,0c-3.6-1.2-7.2-2.5-10.8-3.8c0-0.9,0-1.9,0-2.8c3.1,1.7,6.7,2,9.5,4.4c2.3,2,4.6,1.3,6.6-0.9c0.8-0.9,2-1.4,3-2
    c0.1,0.2,0.2,0.3,0.3,0.5c-0.9,0.6-1.9,1.1-3.1,1.9c0.5,0,0.7,0.1,0.8,0c3.2-1.4,5.9-0.1,6.7,3.2c0.1,0.7-0.3,1.6-0.7,2.2
    c-0.8,1.2-1.9,2.2-2.7,3.4c-1.4,2-1.6,4.1,0,6.1c-1.5,0-3.1,0-4.6,0c-0.6-0.2-1.2-0.5-1.8-0.7l0.1,0c-0.3,0.2-0.5,0.5-0.8,0.7
    c-1.7,0-3.3,0-5,0c-0.3-1.2,0.1-1.8,1.4-2c0.7-0.1,1.3-0.6,2.2-1c-0.3,0.7-0.3,1-0.6,1.3c-0.2,0.2-0.5,0.3-0.8,0.4
    c0.1,0.1,0.3,0.3,0.4,0.3c0.3,0,0.7-0.1,0.9-0.3c1.2-1.2,2.4-2.4,3.6-3.7c0.8-0.9,1.7-1.8,2.8-2.6c-0.5,1-1.2,2.1-1.6,3.2
    c-0.2,0.5,0,1.1,0,1.6c0.4-0.4,0.8-0.7,1-1.1c0.6-1.1,1.1-2.3,1.8-3.4C20.5,190.7,20.6,189,19,187.4c1.3,0.4,1.9,1.3,1.9,2.7
    c0,0.2,0.4,0.7,0.6,0.7c1.1-0.2,1.9-2,1.5-3c-1.2-2.8-4.3-3.4-6.5-1.4C17.3,186.8,18.2,187.1,19,187.4z M0,85.1c1.8,3.2,5.1,3,8,3.3
    c1.9,0.2,3.8,0.1,5.7,0.1c2.4-0.1,3.9-1.4,4.6-3.8c0.3-1.1,1-2.1,1.8-3.1c-0.1,1-0.1,2.1-0.4,3c-0.4,1-1.1,1.9-1.6,2.9c0,0,0,0,0,0
    c-0.4,0.4-1.1,0.8-1.2,1.2c-0.3,2.1-1.8,2.5-3.5,2.8c-1.5,0.3-3.1,0.6-4.5,1.1C5.5,94,2.7,93.5,0,91.4C0,89.3,0,87.2,0,85.1z
     M94.3,0c0.9,0.7,1.9,1.3,2.8,2.1c0.6,0.5,0.9,1.4,1.6,1.7c1.3,0.6,2.8,1.1,4.2,1.5c1.8,0.5,2.9-0.4,3.9-1.8
    c0.2-0.2,0.6-0.3,0.8-0.5c-0.4,1-0.8,2-1.1,3c-0.6,2.2-3.1,3.2-5.5,2c-0.3-0.1-0.5-0.3-0.8-0.5c-0.4-0.2-0.8-0.5-1.2-0.7
    c0,0.5,0,1,0,1.4c0,0.2,0,0.5,0,0.8c-0.5-0.3-1-0.5-1.5-0.7c0,0.4,0.1,0.7,0.1,1.1c-0.2,0-0.3,0.1-0.5,0.1c-0.2-1.1-0.5-2.3-0.7-3.5
    c-0.3-0.4-0.3,2.2-0.9,0.2c-0.2-0.6-1.1-1.1-1.8-1.5c-0.3-0.2-0.7-0.2-1.1-0.2c0,0.4-0.1,1,0.1,1.2c0.8,1,1.8,1.9,2.6,2.8
    c0.2,0.2,0.1,0.6,0.1,0.9c-0.2-0.1-0.5-0.2-0.7-0.4C94.1,8.5,93.4,8,93,7.4c-0.6-1-1.7-1.1-2.1-0.4c-0.5,0.7-0.5,1.9-0.6,2.8
    c0,0.3,0.2,0.6,0.3,0.9c-0.4,0-0.8,0.1-1.2,0.1c0-0.3,0-0.6,0-1C89.6,8,89.9,6.4,91.5,5c0.4-0.4,0.3-1.7,0-2.5
    c-0.3-0.9-1-1.7-1.5-2.5C91.4,0,92.9,0,94.3,0z M83.2,0c-1.3,3.8-5.4,6.5-9.4,6.6c-2.7,0.1-5.5,0.5-8.3,0.7c2.4-0.6,4.8-1.2,7.3-1.7
    c3.2-0.6,5.4-2.4,7.6-4.6c0.2-0.2,0.2-0.7,0.4-1.1C81.5,0,82.4,0,83.2,0z M0,177.6c2.4,1.1,4.8,2,7.1,3.2c1,0.5,1.3,0.2,1.4-0.7
    c0.1-1.1,0.7-1.4,1.8-1.4c0.6,0,1.3-0.1,1.9-0.2c2.7-0.6,3.9,0.6,3.6,3.1c-1.3-0.5-2.5-1.2-3.8-1.4c-3.4-0.6-4.3,1.6-3.1,3.9
    c-2.2-3-5.4-4.6-8.9-5.8C0,178.1,0,177.8,0,177.6z M34.6,200c0.2-2,0.3-4,0.5-6c0.1-0.7,0.6-1.3,1.1-1.8c0.3-0.3,0.8-0.3,1.3-0.5
    c-0.1,0.7-0.1,1.3-0.2,2c-0.1,0.5-0.4,1-0.6,1.5c-0.1,0.4,0,0.8-0.1,1.2c-0.3,1.3-0.6,2.5-1,3.8C35.4,200,35,200,34.6,200z
     M129.6,200c-0.3-1-0.6-1.9-0.7-2.9c-0.3-2.4-0.8-4.6-2.9-6.1c-0.2-0.2-0.3-0.5-0.4-0.8c0.3,0,0.8-0.1,0.9,0.1
    c1,1.5,2.9,2.2,2.8,4.5c-0.1,1.7,0.7,3.5,1.1,5.3C130.1,200,129.9,200,129.6,200z M200,183.9c-0.7-0.2-1.3-0.4-2-0.5
    c-2.3-0.4-4.1-2.4-3.9-4.7c0.1,0.2,0.2,0.4,0.4,0.6c1.9,1.2,3.7,2.3,5.6,3.5C200,183.2,200,183.5,200,183.9z M12.5,0
    c-0.3,0.8-0.5,1.7-0.9,2.5c-0.1,0.2-0.9,0.3-1.2,0.1c-0.5-0.3-1-0.8-1.5-1.2C9,1.3,9.1,1.1,9.2,1c0.5,0.3,1.1,0.6,1.8,1
    c-0.2-0.8-0.4-1.4-0.6-2C11.1,0,11.8,0,12.5,0z M119.3,0c1.3,0.3,2.6,0.6,3.9,0.9c0,0.2-0.1,0.3-0.1,0.5c-2.3-0.5-4.7-1-7-1.4
    C117.1,0,118.2,0,119.3,0z M200,195.8c-1.9-0.5-4.1-0.5-5.4-2.3c1.8,0.6,3.6,1.3,5.4,1.9C200,195.6,200,195.7,200,195.8z
     M197.1,150.9c0.9-0.4,1.6-0.2,2.1,0.6c0.2,0.3,0.5,0.5,0.8,0.8c0,0.6,0,1.2,0,1.8C199,153.1,198.1,152,197.1,150.9z M29.2,192.5
    c-1.4,1.6-3.1,3-1.9,5.5c-0.3-0.8-1-1.9-0.8-2.4C27.2,194.4,28.3,193.5,29.2,192.5C29.3,192.5,29.2,192.5,29.2,192.5z M69.5,52
    c0.3-0.8,0.6-1.6,1-2.3c-1.4-0.1-2.6,1.2-4,0.1c-0.3-0.2-1.1-0.1-1.5,0.1c-1.6,0.8-2.3,0.4-2.3-1.3c0-0.8,0.4-1.7-0.9-1.9
    c0.2-0.4,0.2-1.1,0.5-1.3c3.1-1.4,6.2-2.7,9.3-4c-0.1-0.2-0.1-0.3-0.2-0.5c-0.4,0.1-0.9,0.2-1.3,0.4c-1.4,0.6-2.3,0-3.1-1.1
    c-0.8-1.2-0.6-2.1,0.3-3.1c3.3-3.6,7.8-4.5,12.4-4.9c0.5,0,1,0.4,1.5,0.7c-0.2,0.4-0.4,1-0.7,1.3c-1.1,0.9-2.2,1.8-3.4,2.5
    c-1.5,0.9-2.2,2.2-2.7,3.7c-0.2,0.6,0.1,1.4,0.5,1.9c0.5,0.8,0.9,0.3,1.2-0.3c1.4,0.8,1.6-0.1,1.7-1.1c0-0.1,0.2-0.2,0.3-0.2
    c2-0.9,2-1.2,0.6-2.9c-0.2-0.3-0.2-0.7-0.3-1.1c0.3-0.1,0.6-0.2,0.8-0.2c0.2,0,0.3,0.3,0.5,0.3c1.1,0.4,2.4-0.2,3.5,0.5
    c0.1-0.3,0.2-0.5,0.2-0.8c0-0.4-0.2-1.1,0.1-1.3c0.4-0.3,1.1-0.6,1.6-0.5c0.3,0,0.6,0.8,0.6,1.2c0.1,1.2-1.4,4-2.5,4
    c-1.3,0-1.1,1-1.5,1.5c-1.1,1.2-1.9,2.8-2.9,4.1c-0.4,0.5-1.3,1.2-1.8,1.1c-1.9-0.5-2.8,0.5-3.8,1.8c-1,1.3-2.1,2.5-3.1,3.8
    C69.8,52.1,69.6,52.1,69.5,52z M17.3,90.5c1.1,0.1,2.3,0.4,3.4,0.2c0.8-0.1,1.5-0.6,2.2-1c0.8-0.5,1.3-1.3,2.5-0.7
    c0.2,0.1,0.9-0.9,1.3-1.5c0-0.1-0.2-0.4-0.3-0.4c-1.3,0-1.2-0.9-0.9-1.7c0.9-2.5,2-4.8,4.5-6.2c0.1,0.7,0.1,1.5,0.2,2.2
    c0.2,0,0.3,0,0.5,0c0.3-1.2,0.4-2.4,0.8-3.5c0.2-0.7,0.8-1.4,1.4-1.7c0.2-0.1,1.2,0.6,1.5,1.1c0.4,0.6,0.4,1.5,0.9,2.1
    c0.3,0.4,1.1,0.4,1.7,0.5c0.2,0,0.4-0.2,0.7-0.4c-0.4-0.3-0.8-0.5-1-0.8c-0.4-0.5-0.7-1-1-1.5c2.3,1.5,2.3,1.4,5.2,1
    c1-0.2,2.7-1.8,3.2,0.9c0-1.6-0.1-3-0.3-4.5c0-0.3-0.2-0.5-0.3-0.7c-0.2,0.2-0.4,0.3-0.6,0.5c-0.6,0.5-1.1,1.3-1.8,1.6
    c-3.3,1.2-6.5,0.6-8.5-2.1c-1.6-2.3-3.8-3.6-6-4.9c-0.8-0.5-1.6-0.8-2.5-1.3c0.5,1,1.2,1.8,1.2,2.5c-0.1,1.8-0.4,3.6-0.7,5.5
    c-0.2,1.2-0.4,2.3-0.5,3.5c0.1,0,0.3,0.1,0.4,0.1c0.5-0.7,1-1.5,1.6-2.5c0.1,1,0.4,1.7,0.2,2.2c-0.7,2.4-1.6,4.9-2.5,7.2
    c-0.1,0.3-1,0.4-1.6,0.5c-1.4,0.3-2.7,0.6-4.1,0.9c0,0,0,0,0,0C17.8,88.6,17.5,89.5,17.3,90.5z M28.3,74.6c0.1-0.3,0.8-0.5,1.2-0.7
    c0.1,0.4,0.3,0.7,0.3,1.1c0,0.8,0,1.7-1.2,1.7c0,0.3,0,0.5,0,0.8c0.1,0.3,0.4,0.6,0.3,0.8c-0.3,0.4-0.7,0.7-1,1.1
    c-0.2-0.5-0.3-1-0.5-1.5C27.8,76.7,27.9,75.6,28.3,74.6z M84.2,69.8c1-2.5,2-5,2.9-7.4c0.2,0,0.4,0.1,0.6,0.1c0,1.3,0,2.5,0,3.8
    c1.3-0.9,1.3-2.3,1.5-3.7c0.2-1.8,0.2-3.6,0.7-5.4c0.3-1.1,1.2-2,1.8-3c-0.2-0.1-0.3-0.3-0.5-0.4c-1.1,1.3-2.1,2.7-3,3.9
    c-0.2-0.9,0.2-2,1.4-3.1c2.9-2.8,5.8-5.6,8.9-8.6c-0.3,1.4-0.5,2.7-1,4c-1.2,2.7-2.6,5.2-3.8,7.9c-0.6,1.2-0.8,2.5-1.3,3.8
    c-0.4,0.9-0.4,2.1-1.9,2.3c-0.2,0-0.4,0.8-0.3,1.1c0.3,1.3-0.2,2.2-1,3.2c-1.5,1.8-2.8,3.9-4.2,5.8c-0.7,0.9-1.6,1.5-2.5,2.2
    c-0.2,0.2-0.8,0-1.1,0c0.1-0.3,0-0.7,0.2-0.9c0.8-1,1.8-1.9,2.6-2.9c0.5-0.6,0.9-1.2,1.2-1.9c0.2-0.4,0.1-0.9,0.2-1.4
    c-0.3,0.3-0.7,0.6-1,0.9C84.4,69.9,84.3,69.8,84.2,69.8z M61.3,24.8c0.3,0.7,0.3,0.7,1.5,0.6c-0.5,1.1-1.1,2.3-1.6,3.6
    c0.2,0.2,0.4,0.3,0.6,0.5c1.1-1,2.2-2.1,3.3-3.1c0.5-0.4,0.9-0.8,1.5-1.1c1.5-0.9,2-2.2,1.2-3.5c0.7,0,1.4,0,2,0
    c-0.4,1.3-0.6,2.9-1.4,4c-1.8,2.1-3.5,4.5-6.5,5.2c-0.4,0.1-0.8,0.2-1.2,0.4c-0.5,0.2-0.2,0.3-0.4,1c-0.2,0.7-1.1,1.9-1.7,1.8
    c-1-0.1-2-1-3.1-1.3c-1.5-0.4-1.3-1.9-2-2.8c-0.2-0.3,0.5-1.4,0.8-2.1c0.4,0.2,0.7,0.4,1.1,0.6c0.4,0.2,0.7,0.5,1.1,0.7
    c0.2,0.1,0.4,0.1,0.7,0.2c0-0.3,0-0.5,0-0.8c0-0.2-0.2-0.3-0.3-0.4c-1.2-2.1-0.8-3.8,1.1-5.3c0.8-0.6,1.5-0.8,2.1,0.4
    C60.3,24,60.9,24.4,61.3,24.8L61.3,24.8z M71,29.4c0.9-1,1.6-1.7,2.1-2.4c2.3-3.1,4.6-3.4,7.7-1.7c0.5,0.3,1,0.4,0.2,1.3
    c-1.6,2.1-5.1,5-7.6,5.1C72.7,31.7,71.9,30.3,71,29.4z M62.7,39c-2.2-4.1-0.3-6.7,3.4-7.9c1.4-0.4,2-1.4,3-2
    c0.3-0.2,0.7-0.3,1.1-0.5c0.1,0.4,0.3,0.8,0.4,1.2c0.2,0.7,0.4,1.4,0.4,2.1c0,0.5-0.1,1.2-0.5,1.4c-1.8,1.4-3.6,2.7-5.5,4
    c-0.3,0.2-0.8,0.1-1.3,0.1c-0.4,0-0.7-0.2-1.1-0.3c0.2,0.4,0.3,0.8,0.6,1.1C64,39.4,62.8,38.8,62.7,39L62.7,39z M41,84.3
    c-0.6,1.2-1.2,2.5-1.9,3.7c-0.2,0.3-1,0.5-1.2,0.3c-0.6-0.5-1.1-1.2-1.5-1.9c-0.3-0.5-0.4-1.2-0.7-1.8c-0.3-0.5-0.9-0.9-1.3-1.4
    c-0.3,0.5-0.5,1.1-0.8,1.6c-0.6,1.6-1.3,3.2-1,5c0.1,0.6-0.6,1.4-1.2,2c0.3-2.4-0.3-5,1.3-7.2c0.1-0.2,0.1-0.4,0.1-0.7
    c-0.3,0-0.6,0-0.8,0.1c-0.6,0.5-1.1,1-1.6,1.6c-0.4,0.5-0.8,1.1-1.4,1.5c0.1-2.1,1.3-3.2,3.1-3.8c0.5-0.2,1.1-0.4,1.3-0.8
    c0.8-1.3,1.3-1,1.9,0.1c0.6,1,1.2,1.9,1.8,2.8c1,1.5,1.5,1.5,2.6,0.1C40.2,85.1,40.7,84.8,41,84.3L41,84.3z M23.9,99.1
    c0.9-1.3,1.8-2.7,2.7-4c0.1-0.2,0.1-0.5,0-0.7c-1.1-2.5-1.1-2.5,0.7-4c0.2,1.2,0.8,2.7,0.5,4c-0.3,1.5-1,3.3-2.2,4
    c-1.4,0.8-1.9,1.7-2.4,2.9c-0.1,0.4-0.5,0.7-0.6,0.8c-0.1-1.1-0.1-2.3-0.2-3.4c0-0.1-0.1-0.3-0.1-0.3c-2.8-1.5-0.1-2.8,0.2-4.1
    c0-0.2,0.5-0.3,0.8-0.5c0.1,0.2,0.3,0.5,0.3,0.7c0,0.2-0.1,0.4,0,0.5c0.5,2.3,0.5,2.3-0.2,3.8C23.6,98.9,23.7,99,23.9,99.1z
     M68.9,51.2c-0.4,0.9-0.7,1.9-1,2.7c-0.6,1.5-2.3,2.6-3.6,3.8c-0.6,0.5-1.6,0.7-2.3,1.2c-1.1,0.8-1.9-0.1-2.9-0.3
    c-0.3-0.1-0.7-0.5-0.6-0.6c0.1-0.3,0.4-0.5,0.7-0.7c0.2-0.1,0.5-0.2,0.7-0.1c2.8,0.4,4.1-1.6,5.6-3.4c0.9-1,1.9-1.9,2.9-2.9
    C68.5,51,68.7,51.1,68.9,51.2z M77.2,79.9c-0.3-0.1-0.9-0.2-1.6-0.4c0.4-0.6,0.9-1.1,1.2-1.8c1-1.6,2.6-0.5,3.8-0.9
    c0,0,0.3,0.5,0.3,0.6c-0.9,1.4-1.6,2.9-3.2,3.7c-1,0.5-1.9,1.1-3.1,1.5C75.6,81.6,76.5,80.7,77.2,79.9z M41.1,84.3
    c0.5-0.7,1-1.3,1.5-2c0.1-0.2,0.2-0.3,0.3-0.5c0.9-1.1,1.8-2.2,2.7-3.3c-0.3,1.5,0.2,3.5-2.4,4.1c-0.5,0.1-0.7,1.2-1,1.9
    c-0.6,1.8-1.1,3.7-1.9,5.4C40.5,88.1,40.8,86.2,41.1,84.3C41,84.3,41.1,84.3,41.1,84.3z M86.5,51.4c-0.4,0.1-0.7,0.1-1.1,0.3
    c-0.4,0.1-1.7-0.3-0.6,0.9c0,0-0.8,0.9-1.3,1.4c-0.2,0.1-0.8,0-0.8,0c0-0.5-0.2-1,0-1.5c0.4-0.9,0.8-1.7,1.4-2.5
    c0.2-0.3,0.8-0.5,1.1-0.4c0.7,0.2,1.3,0.6,2,0.9C86.9,50.7,86.7,51,86.5,51.4z M37.2,35.3c0.8,0.8,1.6,1.7,2.6,2.4
    c1.1,0.9,2.3,1.4,3.8,0.8c0.3-0.1,0.7,0.1,1,0.1c-0.2,0.3-0.3,0.8-0.6,0.9c-1.7,0.8-3.2,0.1-4.4-0.9C38.5,37.8,38,36.4,37.2,35.3
    C37.2,35.3,37.2,35.3,37.2,35.3z M87.4,46.9c-0.8-0.7-1.3-1-1.6-1.4c-0.3-0.4-0.4-0.9-0.5-1.3c0.6-0.2,1.2-0.6,1.7-0.4
    c0.9,0.3,1.5,0.6,2-0.5c0.1-0.2,0.3-0.4,0.5-0.6c0.3,0.5,0.6,1,0.8,1.5c0,0-0.3,0.4-0.5,0.4c-0.9,0.1-1.9,0.2-2.8,0.3
    C87,45.4,87.1,46,87.4,46.9z M30.6,67.2c0.1,0.1,0.1,0.1,0.2,0.2c0.1,0.2,0.2,0.4,0.3,0.6c-0.2,0-0.5,0.1-0.7,0
    c-0.6-0.6-1.1-1.3-1.7-1.8c-2.2-1.6-4.5-3.1-6.8-4.7c-0.4-0.3-0.8-0.5-1.2-0.9C22.9,60.7,24.4,61.6,30.6,67.2z M79.3,82.3
    c-0.4,3.6-0.9,7.3-1.3,11.1C78.2,89.6,76.6,85.5,79.3,82.3z M94.1,33.8c0.2-1.5,0.3-3,0.5-4.6c0.1-0.4,0.6-0.8,0.9-1.1
    c0.2,0.5,0.8,1.1,0.6,1.5c-0.5,1.5-1.2,2.8-1.8,4.2C94.4,33.8,94.3,33.8,94.1,33.8z M47.1,53c-0.3-1.7-0.6-3.5-0.8-5.3
    c-0.1-1.1-0.3-2.5,1.2-2.7c0,1.4,0,2.7-0.1,4C47.4,50.4,47.2,51.7,47.1,53z M61,46.9c-0.4,0.6-0.8,1-1.2,1.5
    c-0.3-0.4-0.9-0.8-0.8-1.1c0.2-0.8,0.7-1.5,1-2.2C60.3,45.6,60.6,46.1,61,46.9z M71.4,106.9c-0.3,0.7-0.7,1.6-1.1,2.5
    c0,0.1-0.1,0.3-0.2,0.3c-0.2,0-0.6-0.1-0.6-0.1c-0.2-0.9-0.3-1.8-0.4-2.7c0,0,0.3-0.1,0.5-0.1C70.2,106.7,70.9,106.8,71.4,106.9z
     M61.4,24.8c0-0.4-0.1-0.8-0.1-1.1c0-0.2,0.2-0.6,0.3-0.5c1.1,0.2,2.1,0.5,3.2,0.8c0.1,0,0.1,0.4,0.1,0.6c0,0.1-0.3,0.1-0.5,0.1
    C63.4,24.7,62.4,24.8,61.4,24.8C61.3,24.8,61.4,24.8,61.4,24.8z M115.8,6.3c1.3-2.3,3.6-2.3,5.9-2.6C119.6,4.6,117.7,5.4,115.8,6.3
    L115.8,6.3z M103.2,31.8c-1.2,2.1-2.4,4.1-3.7,6.2C100.4,35.8,100.9,33.2,103.2,31.8C103.2,31.9,103.2,31.8,103.2,31.8z M61.4,50.2
    c-0.7,0.6-1.1,1-1.6,1.4c-0.3-0.3-0.8-0.7-0.8-0.9c0.1-0.5,0.5-1,0.9-1.3C60.1,49.2,60.7,49.7,61.4,50.2z M115.7,6.3
    c-1.2,1.2-2.3,2.4-3.5,3.5c-0.1,0.1-0.5,0.1-0.7,0.1c0.1-0.3,0-0.6,0.2-0.7C113,8.2,114.4,7.3,115.7,6.3
    C115.8,6.3,115.7,6.3,115.7,6.3z M42.8,81.9c-0.1,0.2-0.2,0.3-0.3,0.5c-0.8,0.4-1.7,0.7-2.5,1.1c-0.2,0.1-0.5,0-0.8,0
    c0.1-0.3,0.2-0.8,0.4-0.9c0.9-0.4,1.8-0.7,2.7-1C42.4,81.5,42.6,81.8,42.8,81.9z M70.3,53c0.6-0.8,1.2-1.7,1.9-2.4
    c0.1-0.2,0.5-0.1,0.8-0.1c-0.1,0.2-0.1,0.5-0.3,0.7c-0.7,0.8-1.3,1.5-2,2.2C70.6,53.3,70.4,53.1,70.3,53z M62.6,39
    c-0.5,0.3-1,0.6-1.6,0.9c-0.3-0.8-0.7-1.5-1-2.3c0-0.1,0.2-0.3,0.3-0.5c0.2,0.2,0.4,0.3,0.6,0.5C61.6,38,62.1,38.5,62.6,39
    C62.7,39,62.6,39,62.6,39z M119.3,192.7c5.6-2.4,7-2.2,8.1,1.2c-1.2-0.5-2.5-1.2-3.8-1.3c-1.4-0.1-2.8,0.4-4.2,0.7
    C119.4,193.1,119.3,192.9,119.3,192.7z M118.1,189.7c-0.5-0.1-0.9-0.3-1.4-0.4c0.4-0.3,0.8-0.6,1.2-0.8c0.2-0.2,0.5-0.3,0.8-0.4
    c0.3-0.2,0.8-0.6,0.8-0.5c0.3,0.4,0.8,0.8,0.8,1.2c0,0.3-0.7,0.6-1.1,0.8c-0.3,0.1-0.7,0-1,0C118.1,189.6,118.1,189.6,118.1,189.7z
     M98.5,125.2c-0.4,0.6-1.2,1.4-1,1.9c0.7,1.8-1.5,2-1.5,3.3c-0.2-0.1-0.3-0.1-0.5-0.2c0.8-1.7,1.6-3.5,2.5-5.2
    C98.1,125.1,98.3,125.1,98.5,125.2z M103.8,164.5c0.4-0.1,1-0.4,1.3-0.3c0.4,0.1,0.9,0.7,0.9,1c-0.1,0.5-0.5,0.9-0.8,1.4
    c-0.3-0.4-0.6-0.9-0.9-1.3C104.1,164.9,104,164.7,103.8,164.5z M96.6,125.6c-0.6,1.4-1.2,2.8-1.8,4.2c-0.2-0.1-0.4-0.2-0.5-0.2
    c0.7-1.4,1.3-2.7,2-4.1C96.3,125.6,96.5,125.6,96.6,125.6z M58.1,165.5c-0.9-1.7-0.7-3.3,0.3-4.7c1.3-1.9,1.6-3.8,1.3-6
    c0-0.3,0-0.5,0.2-0.8c0.5,2.3,0.8,4.6-0.4,6.9C58.6,162.3,58.5,164,58.1,165.5z M54.2,162.7c1-1.7,1.9-3.4,2.9-5.2
    C57.3,159.8,56,161.3,54.2,162.7z M43.3,186.1c-0.8,0.9-1.7,1.8-2.6,2.7c-0.1,0.1-0.4,0-0.6,0c0-0.2,0-0.4,0.1-0.5
    c0.7-1,1.5-2,2.3-3C42.7,185.7,43,185.9,43.3,186.1z M154.7,172.9c0.1-1,1.6-3.2,2.6-4.2c0.5-0.5,1-1,1.7-1.3
    c1.1-0.5,1.6-1.2,0.9-2.3c-0.2-0.3,0.1-0.7,0.1-1.1c0.3,0.2,0.7,0.3,0.9,0.6c0.4,0.4,0.6,0.8,1,1.2c0.3,0.2,0.7,0.3,1.1,0.5
    c-0.5,0.3-0.9,0.6-1.4,0.8c-1.2,0.6-2.5,1.1-3.6,1.8c-0.5,0.4-1,1.3-0.9,1.9c0.1,1.3-0.7,1.9-1.7,2.4c-0.3,0.1-0.5,0.2-0.8,0.3
    C154.7,173,154.6,172.7,154.7,172.9z M162,175.2c0.5-0.7,0.7-1.1,1-1.4c1.1-1,2.3-1.8,0.4-3.2c-0.2-0.1,0-1,0.1-1.1
    c0.6-0.2,1.7-0.2,1.7-0.1c0.7,2.7,1.9,1.3,3,0.4c0.2-0.1,0.4-0.1,1.1-0.2C166.9,171.5,164.6,173.2,162,175.2z M183.5,172.5
    c1,2.1,2.1,4.2,3.3,6.7c-1.5-1-2.4-2.7-4.3-1.1C185,176.4,183.5,174.4,183.5,172.5z M182.2,163.8c0.3,2.4,0.7,4.8,1,7.2
    c-0.2,0-0.4,0.1-0.5,0.1c-0.4-2.4-0.7-4.9-1.1-7.3C181.9,163.9,182,163.9,182.2,163.8z M188.2,189.9c-0.4-0.7-0.7-1.4-1.1-2.1
    c2,1.6,4,3.3,5.9,4.9c-1.1-0.5-2.1-1-3.2-1.6C189.3,190.7,188.8,190.3,188.2,189.9z M153.5,9.3c1.2,0.5,2,0.8,2.7,1.2
    c0.4,0.3,0.9,1.1,0.8,1.4c-0.3,0.5-0.9,0.9-1.5,1c-1.2,0.3-3.3-0.9-3.4-2C152.1,10.5,153,9.9,153.5,9.3z M194.7,20.6
    c1.2-0.8,2.1-1.4,3-2c0,0.6,0,1.4,0,2.1c0,0.1-0.5,0.3-0.8,0.2C196.2,21,195.5,20.8,194.7,20.6z M164.9,8c0.4-0.2,0.8-0.5,1.2-0.6
    c1.6-0.3,3.3-0.6,5.1-0.9C169.3,7.9,167.1,8,164.9,8C164.9,8,164.9,8,164.9,8z M11.6,181.3c0.6,0.2,1.4,0.3,1.9,0.6
    c0.6,0.4,0.9,1.1,1.3,1.7c-0.8,0.3-1.6,1-2.3,0.8c-0.9-0.2-2-0.9-2.5-1.7C9.3,181.2,10.8,181.6,11.6,181.3z M7.4,178.4
    c-1.4-0.1-2.9,0.4-3.6-1.4c-0.2-0.5-1.3-0.6-1.9-1C4.1,175.8,5.8,177,7.4,178.4z M21.8,182.3c3.1-0.1,5,2.2,4,5.2
    C26.4,184.2,24.2,183.3,21.8,182.3z M21.9,179.5c1.5-0.2,3-0.5,4.5-0.7c0,0.2,0.1,0.3,0.1,0.5c-1.5,0.3-2.9,0.7-4.4,1
    C22,180,22,179.8,21.9,179.5z M198.4,160.9c0,0.1,0,0.3,0,0.3c-0.9,0.1-1.8,0.4-2.6,0.2c-0.6-0.2-1.6-1-1.5-1.4
    c0.2-0.8,0.9-1.4,1.5-2.1c0.1-0.1,0.7,0.1,0.9,0.4C197.3,159.1,197.8,160,198.4,160.9z M14,199.3C14,199.3,14,199.3,14,199.3
    L14,199.3C13.9,199.3,14,199.3,14,199.3z M174.1,32.4c0.7,2.6,1.3,5.2,2.2,7.8c0.7,1.9,1.6,3.9,3,5.2c1.2,1.1,1.8,2.7,3.2,3.5
    c-1.9-0.6-3.4-1.8-4.5-3.4c-2.6-3.8-3.2-8.2-4.4-12.4c-0.1-0.2,0.1-0.4,0.1-0.6C173.9,32.5,174,32.4,174.1,32.4z M150.9,52.5
    c-0.5-0.7-1.5-1.4-1.3-2c0.2-0.8,1.1-1.5,1.7-2.3c0.6,0.8,1.5,1.5,1.8,2.4c0.1,0.5-0.8,1.3-1.3,1.9
    C151.4,52.6,151.2,52.5,150.9,52.5z M152.7,41.5c-1.1,0.6-2.2,1.2-3.5,1.9c1.1-3.2,3.4-5.6,5.4-8.3c-0.7,1.2-1.3,2.5-2,3.7
    C152,39.7,151.6,40.6,152.7,41.5C152.7,41.5,152.7,41.5,152.7,41.5z M156.8,40.6c-0.4-0.7-0.5-1.4,0.6-2.2c1.1-0.8,2-2,3-2.9
    c0.4-0.4,1-0.7,1.8-0.8C160.4,36.6,158.6,38.6,156.8,40.6z M173.8,28.9c2.4,1,1.5,3.5,2.6,5.2c-0.2,0.1-0.3,0.1-0.5,0.2
    C175.2,32.5,174.5,30.7,173.8,28.9z M182.7,54.6c-0.8-0.6-1.6-1.2-2.3-1.9c-0.2-0.1-0.2-0.4-0.3-0.6c0.2-0.1,0.5-0.2,0.6-0.1
    c0.9,0.7,1.7,1.4,2.5,2.1C183.1,54.3,182.9,54.4,182.7,54.6z M169.3,103.3c-0.1,0.5-0.2,0.9-0.3,1.2c0.7-0.2,1.5-0.4,2.7-0.8
    c-0.8,0.7-1.4,1.1-1.9,1.6c-0.1,0.1-0.2,0.4-0.3,0.6c0.2,0.1,0.5,0.2,0.6,0.1c0.8-0.7,1.6-1.4,2.2-1.9c0.1,1.1-0.7,2.2-2.1,2.6
    c-0.8,0.2-1.7-0.3-2.6-0.4C169.1,105.6,166.8,103.3,169.3,103.3z M158.6,60.2c-0.2,1.1-0.4,2.1-0.7,3.2c0,0.2-0.3,0.3-0.5,0.5
    c-0.1-0.3-0.5-0.6-0.4-0.8c0.4-1,1-2,1.4-3C158.6,60.1,158.6,60.1,158.6,60.2z M149.3,67.9c-0.3,0.1-0.8,0.2-1,0.5
    c-0.2,0.3-0.3,0.7-0.4,1.1c-0.8-0.5-1.5-1-2.3-1.5c0,0,0.4-0.9,0.5-0.8C147.2,67.4,148.2,67.7,149.3,67.9L149.3,67.9z M149.2,68
    c1.2-0.1,2.1,0.3,2.2,1.6C150.2,69.7,149.2,69.4,149.2,68C149.3,67.9,149.2,68,149.2,68z M19.2,27.3c0.7-1.1,1.5-2.2,2.2-3.3
    c0.1,0.1,0.3,0.2,0.4,0.3c-0.7,1.1-1.4,2.2-2.1,3.3C19.6,27.5,19.4,27.4,19.2,27.3z"/>
</svg>
