<svg version="1.1" id="Layer_1" xmlns="http://www.w3.org/2000/svg" xmlns:xlink="http://www.w3.org/1999/xlink" x="0px" y="0px"
	 viewBox="0 0 200 200" style="enable-background:new 0 0 200 200;" xml:space="preserve">
<style type="text/css">
	.st1{fill:#f7e7b3;}
	.st5{mask:url(#SVGID_1_);fill:#f5b8b5;}
	.st0{fill:none;}
	.st2{filter:url(#Adobe_OpacityMaskFilter);}
	.st3{fill:#FFFFFF;}
	.st4{fill:url(#New_Pattern);}
</style>
<pattern  width="200" height="200" patternUnits="userSpaceOnUse" id="New_Pattern" viewBox="33.2 -237.8 200 200" style="overflow:visible;">
	<g>
		<rect x="33.2" y="-237.8" class="st0" width="200" height="200"/>
		<g>
			<path d="M96.9-12.9C97.6-4,102.4-1.2,111.2,0c5.4,0.7,2.3-7,5.8-11.2s11.6-2.3,10.8-7.7c-0.8-5.8-9.8-1-13.5-5.5
				c-1.2-1.5,3,0.1,4.1-1.6c3.1-4.7,8.7-6.3,5-10.7c-5-5.9-7.8-3-15.3-4.8s-7.9-3.6-15-0.7c-5.2,2.2-5.7,4.5-1.6,8.4
				c7.3,6.8,10.5-0.9,15.8,7.6C112.8-17.5,96.2-22.3,96.9-12.9z"/>
			<path d="M183.7-22.4c1.3-7.6-6.8-6.9-11.5-13s-2.4-9.3-10-9.9c-8.3-0.7-12.9-0.1-14.3,8.1c-1.3,7.6,5.9,6.3,10.6,12.4
				s1.7,10.7,8.7,13.8C176.2-7,182.3-14.2,183.7-22.4z"/>
		</g>
		<g>
			<path d="M236.3-134.7c1.8,6.7,3.5,7.3,10.4,7.4c7.7,0,5.5-3.4,11.6-8.1c6.1-4.7,12.3-0.5,15.2-7.6c1.5-3.6-5-5.2-8.9-5.7
				c-8.3-1.2-10.6,7.4-17.6,2.8c-4.3-2.8,8.7-7.8,5.7-11.9c-4.5-6.2-8.9-0.6-16.1-3.3s-7.5-10.6-14.4-7.1c-7.4,3.8-9.9,9.1-7.2,17
				c2.1,6.3,7.1,4.3,13.4,6.6s9-3,12.8,2.4C244.3-137.9,235-139.3,236.3-134.7z"/>
			<path d="M244.6-109.1c-5.6-1-2.1,6.8-5.6,11.2c-3.5,4.5-10.7,2.6-8.4,7.7c4.5,9.8,6.5,10.5,17.1,12.4c5.6,1,2.8-4.1,6.2-8.5
				s9.9-2.8,10-8.4C264.4-106.1,255.2-107.3,244.6-109.1z"/>
		</g>
		<g>
			<path d="M61.8-166.1c3.2,4.6,8.8,0.9,11.6-4c3.9-6.6-0.6-6.3-1.4-14s0.3-7.3-2.4-14.5c-0.7-1.9-1,1.5-1-0.5
				c-0.2-5.6,2.8-4.8,4.7-10.1s5.4-6.4,2-10.9c-5.3-6.9-7.3-7.9-15.2-4.2c-7.9,3.7-5.5,5.7-8.4,13.9s-9.6,9.8-6.3,17.9
				c2.9,7.2,11.3-1.7,14.6,5.4C64.6-176.7,56-174.4,61.8-166.1z"/>
			<path d="M156.6-95.6c3.8-5.6-0.8-5.7-1.5-12.4s1.8-6.7,2.2-13.4c0.4-6.4,3.7-6.9-0.4-11.8c-5.3-6.4-8.7-9.7-15.4-4.8
				c-7.7,5.5-3.7,9.1-2.6,18.5c0.4,3.4,4.8-2,6.5,0.9c3.1,5.2,1.8,6.6,2.4,12.6s-6.2,8.2-3.2,13.5C147.2-87.6,153.4-90.9,156.6-95.6
				z"/>
			<path d="M202.6-89.5c-6-5.4-7.8,1.7-15.8,1.7s-10.2-7.9-17.2-3.8c-4.9,2.9-6,9.1-2.1,13.2c6,6.3,10.4-1.5,17.8,3.2
				c2.4,1.5-7,3.5-5.4,5.9c4.8,7.3,9.2,3.4,16,9s3.7,10.6,12.5,9.8c8.7-0.9,9-2.5,9.4-11.3c0.3-6.5-4.5-2.3-9.6-6.4
				s-5.4-3.9-6.4-10.3C200.7-85.1,207.1-85.4,202.6-89.5z"/>
			<path d="M96.9-212.9c0.6,8.9,5.5,11.6,14.3,12.8c5.4,0.7,2.3-7,5.8-11.2s11.6-2.3,10.8-7.7c-0.8-5.8-9.8-1-13.5-5.5
				c-1.2-1.5,3,0.1,4.1-1.6c3.1-4.7,8.7-6.3,5-10.7c-5-5.9-7.8-3-15.3-4.8s-7.9-3.6-15-0.7c-5.2,2.2-5.7,4.5-1.6,8.4
				c7.3,6.8,10.5-0.9,15.8,7.6C112.8-217.5,96.2-222.3,96.9-212.9z"/>
			<path d="M208-107.4c7.7-2.8,7.8-4.1,5.6-12.1c-1.6-5.9-3.4-3.5-9.3-4.9c-5.9-1.5-5.8-3.3-10.5,0.5c-6.3,5.2-7.4,5.9-5.3,13.8
				C191.2-100.2,198.2-103.8,208-107.4z"/>
			<path d="M66.8-65.2c-3.5,4.6-5.3,2.8-9.8,6.4s-8.3,1.5-7.8,7.2C50-42.9,51-41.2,59.4-38.8c6,1.7,3.6-4.1,8.5-8s4.7-4.9,10.5-7.2
				c2.8-1.1,4.5,4.7,6.2,2.2c4.5-6.8,8.8-9.4,3.7-15.8c-6.6-8.2-9.8-4.1-20.4-4.3C64-71.9,69-68,66.8-65.2z"/>
			<path d="M36.3-134.7c1.8,6.7,3.5,7.3,10.4,7.4c7.7,0,5.5-3.4,11.6-8.1s12.3-0.5,15.2-7.6c1.5-3.6-5-5.2-8.9-5.7
				c-8.3-1.2-10.6,7.4-17.6,2.8c-4.3-2.8,8.7-7.8,5.7-11.9c-4.5-6.2-8.9-0.6-16.1-3.3s-7.5-10.6-14.4-7.1c-7.4,3.8-9.9,9.1-7.2,17
				c2.1,6.3,7.1,4.3,13.4,6.6s9-3,12.8,2.4C44.3-137.9,35-139.3,36.3-134.7z"/>
			<path d="M44.6-109.1c-5.6-1-2.1,6.8-5.6,11.2s-10.7,2.6-8.4,7.7c4.5,9.8,6.5,10.5,17.1,12.4c5.6,1,2.8-4.1,6.2-8.5
				s9.9-2.8,10-8.4C64.4-106.1,55.2-107.3,44.6-109.1z"/>
			<path d="M120-105.7c4.2-7.2,1.2-10.7-5.7-15.5c-6.3-4.4-6,2.5-13.2-0.4c-4.6-1.9,3.6-7.2-0.5-10.1c-5.3-3.7-10.6-3.2-15.9,0.6
				c-5.1,3.7-0.5,7.8-2.2,13.8s-8.3,7.2-6.1,13.1c2.8,7.4,7.3,13.3,15.1,11.8c6.6-1.3-1.4-9.4,3.8-13.7c4.8-4,4.5-1.7,10.4,0.3
				C113.1-103.3,116.9-100.3,120-105.7z"/>
			<path d="M109.8-57.1c2.7,4.7,4.9,1.7,10.1,2.9s7.3,6.8,11.7,3.7c4.9-3.4,2.4-6.9,3.7-12.7s3.9-7.2,1-12.4
				c-2.7-4.7-5.1-3.7-10.4-4.9s-5-0.3-9.5,2.8c-4.9,3.4-1,4.2-3.4,9.7C110.6-62.4,106.9-62.3,109.8-57.1z"/>
			<path d="M96.2-154.4c-0.7,8.3,0.8,12.9,9,14.4c7.6,1.3,6.3-5.9,12.4-10.6s10.4-1.8,11.1-9.4c0.7-8.3-0.4-14.5-8.6-16
				c-7.6-1.3-5.5,9.4-12.4,12.8C100.6-159.8,96.8-162.1,96.2-154.4z"/>
			<path d="M183.7-222.4c1.3-7.6-6.8-6.9-11.5-13s-2.4-9.3-10-9.9c-8.3-0.7-12.9-0.1-14.3,8.1c-1.3,7.6,5.9,6.3,10.6,12.4
				s1.7,10.7,8.7,13.8C176.2-207,182.3-214.2,183.7-222.4z"/>
			<path d="M162.3-192.6c-5.6-7.7-10.6-8-19-3.5c-7.3,4-8.3,9-3.4,15.8c5.6,7.7,8.8,6.3,18.1,4.3
				C167.1-177.9,167.2-185.9,162.3-192.6z"/>
			<path d="M236.8-226.6c-5.6-7.7-9.2-10.5-17.6-6.1c-7.1,3.7,1.4,9.9-3.6,16.2c-6.2,8-9.1,3.8-14,12.7c-2.7,5-2.2,6.7,3.5,7.1
				c7.7,0.6,7.4-1.5,13.9-5.5s4.7-7,11.1-11.1c0,0,0.5,2.4,0.6,2.4c1.8,0.4,3.1,1.7,4.6,0.7C242-215.1,241.7-219.8,236.8-226.6z"/>
			<path d="M174.3-170.9c-2.4,5.5,6.9,6,6.9,12.1c0,8-10.3,9-6.4,16c3.5,6.2,7.8,4.8,14.8,3.6c2.8-0.5-2.4-5.8-0.5-7.9
				c5.2-5.8,11.8-0.6,13.6-8.1c1.6-7.1-1.5-7.3-5.1-13.6c-3.6-6.3-2.6-8.1-8.9-11.8C181-185.3,177.7-178.6,174.3-170.9z"/>
			<path d="M155.3-39.7c3.3,6.3,6.1,7.6,11.8,3.3c6.7-5,10.1-9.3,6.2-16.7c-3.3-6.3-9.2-4.3-16.1-2.6
				C149.3-53.8,151.4-47.1,155.3-39.7z"/>
		</g>
		<g>
			<path d="M36.8-226.6c-5.6-7.7-9.2-10.5-17.6-6.1c-7.1,3.7,1.4,9.9-3.6,16.2c-6.2,8-9.1,3.8-14,12.7c-2.7,5-2.2,6.7,3.5,7.1
				c7.7,0.6,7.4-1.5,13.9-5.5s4.7-7,11.1-11.1c0,0,0.5,2.4,0.6,2.4c1.8,0.4,3.1,1.7,4.6,0.7C42-215.1,41.7-219.8,36.8-226.6z"/>
		</g>
		<g>
			<path d="M155.3-239.7c3.3,6.3,6.1,7.6,11.8,3.3c6.7-5,10.1-9.3,6.2-16.7c-3.3-6.3-9.2-4.3-16.1-2.6
				C149.3-253.8,151.4-247.1,155.3-239.7z"/>
		</g>
	</g>
</pattern>
<rect class="st1" width="200" height="200"/>
<defs>
	<filter id="Adobe_OpacityMaskFilter" filterUnits="userSpaceOnUse" x="0" y="0" width="200" height="200">
		<feColorMatrix  type="matrix" values="1 0 0 0 0  0 1 0 0 0  0 0 1 0 0  0 0 0 1 0"/>
	</filter>
</defs>
<mask maskUnits="userSpaceOnUse" x="0" y="0" width="200" height="200" id="SVGID_1_">
	<g class="st2">
		<rect class="st3" width="200" height="200"/>
		<rect class="st4" width="200" height="200"/>
	</g>
</mask>
<rect class="st5" width="200" height="200"/>
</svg>