<svg
	version="1.1"
	xmlns="http://www.w3.org/2000/svg"
	xmlns:xlink="http://www.w3.org/1999/xlink"
	x="0px"
	y="0px"
	width="236"
	height="318"
	viewBox="0 0 236 318"
	style="enable-background:new 0 0 236 318;"
	xml:space="preserve"
>
	<style type="text/css">
		.st0{fill: #F7E7B3;}
		.st1{fill: #F5CBA7;}
	</style>
	<ellipse
		transform="matrix(1 -2.932196e-03 2.932196e-03 1 -0.6915 0.246)"
		class="st0"
		cx="83.5"
		cy="235.9"
		rx="78.3"
		ry="78.3"
	/>

	<rect
		x="5.2"
		y="158.1"
		transform="matrix(1 -2.932196e-03 2.932196e-03 1 -0.581 0.1875)"
		class="st0"
		width="117"
		height="80.4"
	/>

	<path
		class="st0"
		d="M122.1,297.7c-5.7,0-11.5-1.9-16.2-5.9c-10.7-8.9-12.1-24.8-3.2-35.5c0,0,33-29.1,52.1-52.3
		s28.4-40.2,37.3-50.9c8.9-10.7,24.8-12.1,35.5-3.2c10.7,8.9,0.1,24.1-8.8,34.7l-77.4,104C136.5,294.6,129.3,297.7,122.1,297.7z"
	/>

	<path
		class="st0"
		d="M25.3,200.2c-11.1,0-20.2-9-20.2-20.1L4.8,74.5c0-11.1,9-20.2,20.1-20.2s20.2,9,20.2,20.1L45.4,180
		C45.5,191.1,36.5,200.2,25.3,200.2z"
	/>

	<path
		class="st0"
		d="M65.7,200.1c-11.1,0-20.2-9-20.2-20.1L45,44.8c0-11.1,9-20.2,20.1-20.2s20.2,9,20.2,20.1l0.4,135.1
		C85.8,191,76.8,200,65.7,200.1z"
	/>

	<path
		class="st0"
		d="M106,191.9c-11.1,0-20.2-9-20.2-20.1L85.3,24.5c0-11.1,9-20.2,20.1-20.2s20.2,9,20.2,20.1l0.4,147.2
		C126.1,182.8,117.1,191.9,106,191.9z"
	/>

	<path
		class="st0"
		d="M146.4,220c-11.1,0-20.2-9-20.2-20.1l-0.4-145.2c0-11.1,9-20.2,20.1-20.2c11.1,0,20.2,9,20.2,20.1l0.4,145.2
		C166.6,210.9,157.6,220,146.4,220z"
	/>

	<polygon class="st1" points="125.7,34.5 126.1,156.1 145.9,34.4 	" />
	<polygon class="st1" points="85.3,24.5 85.7,153.2 63.1,24.6 	" />
	<polygon class="st1" points="45.1,54.2 45.4,167.6 22.9,54.3 	" />
	<path
		class="st1"
		d="M166.5,189c-14.7,18.2-32,7.9-51.5,10.9c-23.3,3.6-45.3,19.9-40.1,51.8c0,0-36.2-47.7-4.5-74.3
	c22.3-18.7,46.1-3.4,55.7,1.9C147.4,191,166.5,189,166.5,189z"
	/>
</svg>