<?xml version="1.0" encoding="utf-8"?>
<!-- Generator: Adobe Illustrator 19.2.0, SVG Export Plug-In . SVG Version: 6.00 Build 0)  -->
<svg version="1.1" id="Layer_1" xmlns="http://www.w3.org/2000/svg" xmlns:xlink="http://www.w3.org/1999/xlink" x="0px" y="0px"
	 viewBox="0 0 800 800" style="enable-background:new 0 0 800 800;" xml:space="preserve">
<style type="text/css">
	.st0{fill:none;}
	.st1{clip-path:url(#SVGID_2_);}
	.st2{fill:#F4AEAE;}
	.st3{filter:url(#Adobe_OpacityMaskFilter);}
	.st4{fill:url(#New_Pattern);}
	.st5{mask:url(#SVGID_3_);fill:#F7E7B3;}
	.st6{fill:#2C2F34;}
	.st7{fill:#FFFB74;}
</style>
<pattern  x="200" y="200" width="200" height="200" patternUnits="userSpaceOnUse" id="New_Pattern" viewBox="33.2 -219.6 200 200" style="overflow:visible;">
	<g>
		<rect x="33.2" y="-219.6" class="st0" width="200" height="200"/>
		<g>
			<defs>
				<rect id="SVGID_1_" x="33.2" y="-219.6" width="200" height="200"/>
			</defs>
			<clipPath id="SVGID_2_">
				<use xlink:href="#SVGID_1_"  style="overflow:visible;"/>
			</clipPath>
			<g class="st1">
				<path d="M96.9-244.5c0.7-8.9,5.5-11.7,14.3-12.9c5.4-0.7,2.3,7,5.8,11.2s11.6,2.3,10.8,7.7c-0.8,5.8-9.8,1-13.5,5.5
					c-1.2,1.5,3-0.1,4.1,1.6c3.1,4.7,8.7,6.3,5,10.7c-5,5.9-7.8,3-15.3,4.8c-7.5,1.8-7.9,3.6-15,0.7c-5.2-2.2-5.7-4.5-1.6-8.4
					c7.3-6.8,10.5,0.9,15.8-7.6C112.8-239.9,96.2-235.1,96.9-244.5z"/>
				<path d="M183.7-235c1.3,7.6-6.8,6.9-11.5,13s-2.4,9.3-10,9.9c-8.3,0.7-12.9,0.1-14.3-8.1c-1.3-7.6,5.9-6.3,10.6-12.4
					c4.7-6.1,1.7-10.7,8.7-13.8C176.2-250.4,182.3-243.2,183.7-235z"/>
			</g>
			<g class="st1">
				<path d="M236.3-122.7c1.8-6.7,3.5-7.3,10.4-7.4c7.7,0,5.5,3.4,11.6,8.1c6.1,4.7,12.3,0.5,15.2,7.6c1.5,3.6-5,5.2-8.9,5.7
					c-8.3,1.2-10.6-7.4-17.6-2.8c-4.3,2.8,8.7,7.8,5.7,11.9c-4.5,6.2-8.9,0.6-16.1,3.3s-7.5,10.6-14.4,7.1c-7.4-3.8-9.9-9.1-7.2-17
					c2.1-6.3,7.1-4.3,13.4-6.6s9,3,12.8-2.4C244.3-119.5,235-118.1,236.3-122.7z"/>
				<path d="M244.6-148.3c-5.6,1-2.1-6.8-5.6-11.2c-3.5-4.5-10.7-2.6-8.4-7.7c4.5-9.8,6.5-10.5,17.1-12.4c5.6-1,2.8,4.1,6.2,8.5
					c3.4,4.4,9.9,2.8,10,8.4C264.4-151.3,255.2-150.1,244.6-148.3z"/>
			</g>
			<g class="st1">
				<path d="M61.8-91.3c3.2-4.6,8.8-0.9,11.6,4c3.9,6.6-0.6,6.3-1.4,14s0.3,7.3-2.4,14.5c-0.7,1.9-1-1.5-1,0.5
					c-0.2,5.6,2.8,4.8,4.7,10.1s5.4,6.4,2,10.9c-5.3,6.9-7.3,7.9-15.2,4.2s-5.5-5.7-8.4-13.9s-9.6-9.8-6.3-17.9
					c2.9-7.2,11.3,1.7,14.6-5.4C64.6-80.7,56-83,61.8-91.3z"/>
				<path d="M156.6-161.8c3.8,5.6-0.8,5.7-1.5,12.4c-0.7,6.7,1.8,6.7,2.2,13.4c0.4,6.4,3.7,6.9-0.4,11.8c-5.3,6.4-8.7,9.7-15.4,4.8
					c-7.7-5.5-3.7-9.1-2.6-18.5c0.4-3.4,4.8,2,6.5-0.9c3.1-5.2,1.8-6.6,2.4-12.6s-6.2-8.2-3.2-13.5
					C147.2-169.8,153.4-166.5,156.6-161.8z"/>
				<path d="M202.6-167.9c-6,5.4-7.8-1.7-15.8-1.7s-10.2,7.9-17.2,3.8c-4.9-2.9-6-9.1-2.1-13.2c6-6.3,10.4,1.5,17.8-3.2
					c2.4-1.5-7-3.5-5.4-5.9c4.8-7.3,9.2-3.4,16-9c6.8-5.6,3.7-10.6,12.5-9.8c8.7,0.9,9,2.5,9.4,11.3c0.3,6.5-4.5,2.3-9.6,6.4
					c-5.1,4.1-5.4,3.9-6.4,10.3C200.7-172.3,207.1-172,202.6-167.9z"/>
				<path d="M96.9-44.5c0.6-8.9,5.5-11.6,14.3-12.8c5.4-0.7,2.3,7,5.8,11.2s11.6,2.3,10.8,7.7c-0.8,5.8-9.8,1-13.5,5.5
					c-1.2,1.5,3-0.1,4.1,1.6c3.1,4.7,8.7,6.3,5,10.7c-5,5.9-7.8,3-15.3,4.8s-7.9,3.6-15,0.7c-5.2-2.2-5.7-4.5-1.6-8.4
					c7.3-6.8,10.5,0.9,15.8-7.6C112.8-39.9,96.2-35.1,96.9-44.5z"/>
				<path d="M208-150c7.7,2.8,7.8,4.1,5.6,12.1c-1.6,5.9-3.4,3.5-9.3,4.9c-5.9,1.5-5.8,3.3-10.5-0.5c-6.3-5.2-7.4-5.9-5.3-13.8
					C191.2-157.2,198.2-153.6,208-150z"/>
				<path d="M66.8-192.2c-3.5-4.6-5.3-2.8-9.8-6.4s-8.3-1.5-7.8-7.2c0.8-8.7,1.8-10.4,10.2-12.8c6-1.7,3.6,4.1,8.5,8
					c4.9,3.9,4.7,4.9,10.5,7.2c2.8,1.1,4.5-4.7,6.2-2.2c4.5,6.8,8.8,9.4,3.7,15.8c-6.6,8.2-9.8,4.1-20.4,4.3
					C64-185.5,69-189.4,66.8-192.2z"/>
				<path d="M36.3-122.7c1.8-6.7,3.5-7.3,10.4-7.4c7.7,0,5.5,3.4,11.6,8.1s12.3,0.5,15.2,7.6c1.5,3.6-5,5.2-8.9,5.7
					c-8.3,1.2-10.6-7.4-17.6-2.8c-4.3,2.8,8.7,7.8,5.7,11.9c-4.5,6.2-8.9,0.6-16.1,3.3s-7.5,10.6-14.4,7.1c-7.4-3.8-9.9-9.1-7.2-17
					c2.1-6.3,7.1-4.3,13.4-6.6s9,3,12.8-2.4C44.3-119.5,35-118.1,36.3-122.7z"/>
				<path d="M44.6-148.3c-5.6,1-2.1-6.8-5.6-11.2s-10.7-2.6-8.4-7.7c4.5-9.8,6.5-10.5,17.1-12.4c5.6-1,2.8,4.1,6.2,8.5
					c3.4,4.4,9.9,2.8,10,8.4C64.4-151.3,55.2-150.1,44.6-148.3z"/>
				<path d="M120-151.7c4.2,7.2,1.2,10.7-5.7,15.5c-6.3,4.4-6-2.5-13.2,0.4c-4.6,1.9,3.6,7.2-0.5,10.1c-5.3,3.7-10.6,3.2-15.9-0.6
					c-5.1-3.7-0.5-7.8-2.2-13.8s-8.3-7.2-6.1-13.1c2.8-7.4,7.3-13.3,15.1-11.8c6.6,1.3-1.4,9.4,3.8,13.7c4.8,4,4.5,1.7,10.4-0.3
					C113.1-154.1,116.9-157.1,120-151.7z"/>
				<path d="M109.8-200.3c2.7-4.7,4.9-1.7,10.1-2.9c5.2-1.2,7.3-6.8,11.7-3.7c4.9,3.4,2.4,6.9,3.7,12.7s3.9,7.2,1,12.4
					c-2.7,4.7-5.1,3.7-10.4,4.9c-5.3,1.2-5,0.3-9.5-2.8c-4.9-3.4-1-4.2-3.4-9.7C110.6-195,106.9-195.1,109.8-200.3z"/>
				<path d="M96.2-103c-0.7-8.3,0.8-12.9,9-14.4c7.6-1.3,6.3,5.9,12.4,10.6s10.4,1.8,11.1,9.4c0.7,8.3-0.4,14.5-8.6,16
					c-7.6,1.3-5.5-9.4-12.4-12.8C100.6-97.6,96.8-95.3,96.2-103z"/>
				<path d="M183.7-35c1.3,7.6-6.8,6.9-11.5,13s-2.4,9.3-10,9.9c-8.3,0.7-12.9,0.1-14.3-8.1c-1.3-7.6,5.9-6.3,10.6-12.4
					s1.7-10.7,8.7-13.8C176.2-50.4,182.3-43.2,183.7-35z"/>
				<path d="M162.3-64.8c-5.6,7.7-10.6,8-19,3.5c-7.3-4-8.3-9-3.4-15.8c5.6-7.7,8.8-6.3,18.1-4.3C167.1-79.5,167.2-71.5,162.3-64.8z
					"/>
				<path d="M236.8-30.8c-5.6,7.7-9.2,10.5-17.6,6.1c-7.1-3.7,1.4-9.9-3.6-16.2c-6.2-8-9.1-3.8-14-12.7c-2.7-5-2.2-6.7,3.5-7.1
					c7.7-0.6,7.4,1.5,13.9,5.5s4.7,7,11.1,11.1c0,0,0.5-2.4,0.6-2.4c1.8-0.4,3.1-1.7,4.6-0.7C242-42.3,241.7-37.6,236.8-30.8z"/>
				<path d="M174.3-86.5c-2.4-5.5,6.9-6,6.9-12.1c0-8-10.3-9-6.4-16c3.5-6.2,7.8-4.8,14.8-3.6c2.8,0.5-2.4,5.8-0.5,7.9
					c5.2,5.8,11.8,0.6,13.6,8.1c1.6,7.1-1.5,7.3-5.1,13.6s-2.6,8.1-8.9,11.8C181-72.1,177.7-78.8,174.3-86.5z"/>
				<path d="M155.3-217.7c3.3-6.3,6.1-7.6,11.8-3.3c6.7,5,10.1,9.3,6.2,16.7c-3.3,6.3-9.2,4.3-16.1,2.6
					C149.3-203.6,151.4-210.3,155.3-217.7z"/>
			</g>
			<path class="st1" d="M36.8-30.8c-5.6,7.7-9.2,10.5-17.6,6.1c-7.1-3.7,1.4-9.9-3.6-16.2c-6.2-8-9.1-3.8-14-12.7
				c-2.7-5-2.2-6.7,3.5-7.1c7.7-0.6,7.4,1.5,13.9,5.5s4.7,7,11.1,11.1c0,0,0.5-2.4,0.6-2.4c1.8-0.4,3.1-1.7,4.6-0.7
				C42-42.3,41.7-37.6,36.8-30.8z"/>
			<path class="st1" d="M155.3-17.7c3.3-6.3,6.1-7.6,11.8-3.3c6.7,5,10.1,9.3,6.2,16.7C170,2,164.1,0,157.2-1.7
				C149.3-3.6,151.4-10.3,155.3-17.7z"/>
		</g>
	</g>
</pattern>
<rect x="0" class="st2" width="800" height="800"/>
<defs>
	<filter id="Adobe_OpacityMaskFilter" filterUnits="userSpaceOnUse" x="0" y="0" width="800" height="800">
		
			<feColorMatrix  type="matrix" values="-1 0 0 0 1  0 -1 0 0 1  0 0 -1 0 1  0 0 0 1 0" color-interpolation-filters="sRGB" result="source"/>
	</filter>
</defs>
<mask maskUnits="userSpaceOnUse" x="0" y="0" width="800" height="800" id="SVGID_3_">
	<g class="st3">
		<rect x="-400" y="-400" class="st4" width="1600" height="1600"/>
	</g>
</mask>
<rect x="0" class="st5" width="800" height="800"/>
<g>
	<g>
		<g>
			<path class="st6" d="M370.6,532.5c-9.9,4.3-20,6.5-30.1,6.5c-10.1,0.1-20-1.8-29.6-5.6c-9.6-3.9-18.3-9.7-26.1-17.5
				c-7.8-7.8-13.6-16.5-17.5-26.1c-3.9-9.6-5.7-19.5-5.6-29.6c0.1-10.1,2.3-20.1,6.5-30.1c2.5-5.7,5.7-11.2,9.6-16.5
				c-3.8,2.8-7.5,6-11.1,9.6c-8.5,8.5-14.9,17.8-19.2,27.7c-4.3,9.9-6.5,20-6.5,30.1c-0.1,10.1,1.8,20,5.6,29.6
				c3.9,9.6,9.7,18.3,17.5,26.1c7.8,7.8,16.5,13.6,26.1,17.5c9.6,3.9,19.5,5.7,29.6,5.6c10.1-0.1,20.1-2.3,30.1-6.5
				c9.9-4.3,19.2-10.7,27.7-19.2c3.6-3.6,6.7-7.3,9.6-11.1C381.9,526.8,376.4,530.1,370.6,532.5z"/>
			<path class="st6" d="M360.3,494.1c-0.2,0.5-0.4,0.9-0.6,1.3c4.5-2.1,8.5-4.9,12.2-8.6c4-4,7.1-8.5,9.2-13.5
				c2.1-5,3.3-10.2,3.4-15.5c0.1-5.3-0.8-10.6-2.7-15.7c-1.9-5.1-5-9.7-9.2-13.9c-4.2-4.2-8.8-7.2-13.9-9.2
				c-5.1-1.9-10.3-2.9-15.7-2.7c-5.3,0.1-10.5,1.3-15.5,3.4c-5,2.1-9.5,5.2-13.5,9.2c-3.6,3.6-6.5,7.7-8.6,12.2
				c0.4-0.2,0.9-0.4,1.3-0.6c5-2.1,10.2-3.3,15.5-3.4c5.3-0.1,10.6,0.8,15.7,2.7c5.1,2,9.7,5,13.9,9.2c4.2,4.2,7.2,8.8,9.2,13.9
				c1.9,5.1,2.9,10.3,2.7,15.7C363.6,483.9,362.5,489.1,360.3,494.1z"/>
		</g>
		<g>
			<polygon class="st6" points="436,346.5 426,269.9 405.2,290.6 409,319.5 			"/>
			<polygon class="st6" points="478.7,389.2 512.4,393.4 533.2,372.6 452.1,362.6 			"/>
		</g>
	</g>
</g>
<g>
	<g>
		<path class="st7" d="M284.9,516c-7.8-7.8-13.6-16.5-17.5-26.1c-3.9-9.6-5.7-19.5-5.6-29.6c0.1-10.1,2.3-20.1,6.5-30.1
			c4.3-9.9,10.7-19.2,19.2-27.7c8.4-8.4,17.7-14.8,27.6-19.1c10-4.3,20-6.5,30.2-6.7c10.2-0.1,20,1.7,29.7,5.6
			c9.6,3.9,18.3,9.7,26.1,17.5c7.8,7.8,13.6,16.5,17.5,26.1c3.9,9.6,5.7,19.5,5.6,29.7c-0.1,10.2-2.4,20.2-6.7,30.2
			c-4.3,10-10.7,19.2-19.1,27.6c-8.5,8.5-17.8,14.9-27.7,19.2c-9.9,4.3-20,6.5-30.1,6.5c-10.1,0.1-20-1.8-29.6-5.6
			C301.3,529.6,292.6,523.8,284.9,516z M313.4,487.4c4.2,4.2,8.8,7.2,13.9,9.2c5.1,2,10.3,2.9,15.6,2.8c5.3-0.1,10.4-1.2,15.5-3.3
			c5-2.1,9.5-5.2,13.5-9.2c4-4,7.1-8.5,9.2-13.5c2.1-5,3.3-10.2,3.4-15.5c0.1-5.3-0.8-10.6-2.7-15.7c-1.9-5.1-5-9.7-9.2-13.9
			c-4.2-4.2-8.8-7.2-13.9-9.2c-5.1-1.9-10.3-2.9-15.7-2.7c-5.3,0.1-10.5,1.3-15.5,3.4c-5,2.1-9.5,5.2-13.5,9.2
			c-4,4-7.1,8.5-9.2,13.5c-2.1,5-3.2,10.2-3.3,15.5c-0.1,5.3,0.8,10.5,2.8,15.6C306.2,478.6,309.2,483.2,313.4,487.4z"/>
		<path class="st7" d="M436,346.5l-10-76.6l33.7-33.7l8.1,91.3l100.8,9.7l-35.4,35.4l-81-10l45.5,45.5l-27.3,27.3l-105-105
			l27.3-27.3L436,346.5z"/>
	</g>
</g>
<path class="st6" d="M365.4,330.4l-20.7,20.7l31.6,31.6c9.1,3.9,17.4,9.5,24.9,16.9c7.5,7.5,13.1,15.8,16.9,24.9l31.6,31.6
	l20.7-20.7L365.4,330.4z"/>
</svg>
